<?xml version="1.0" encoding="UTF-8"?>
<!DOCTYPE svg PUBLIC "-//W3C//DTD SVG 1.1//EN" "http://www.w3.org/Graphics/SVG/1.1/DTD/svg11.dtd">
<!-- Creator: CorelDRAW 2018 (64-Bit) -->
<svg xmlns="http://www.w3.org/2000/svg" xml:space="preserve" width="8.5in" height="11in" version="1.1" style="shape-rendering:geometricPrecision; text-rendering:geometricPrecision; image-rendering:optimizeQuality; fill-rule:evenodd; clip-rule:evenodd"
viewBox="0 0 8500 11000"
 xmlns:xlink="http://www.w3.org/1999/xlink">
 <defs>
  <style type="text/css">
   <![CDATA[
    .fil0 {fill:#2B2A29}
    .fil5 {fill:#693C16}
    .fil2 {fill:#CB7F83}
    .fil6 {fill:#F30709}
    .fil1 {fill:#FEFEFE;fill-rule:nonzero}
    .fil9 {fill:#2B2A29;fill-rule:nonzero}
    .fil8 {fill:#317C0F;fill-rule:nonzero}
    .fil4 {fill:url(#id0)}
    .fil3 {fill:url(#id1)}
    .fil7 {fill:url(#id2)}
   ]]>
  </style>
  <linearGradient id="id0" gradientUnits="userSpaceOnUse" x1="6298.01" y1="6964.56" x2="2202.28" y2="3216.95">
   <stop offset="0" style="stop-opacity:1; stop-color:#DDA1A5"/>
   <stop offset="1" style="stop-opacity:1; stop-color:#F8CED9"/>
  </linearGradient>
  <linearGradient id="id1" gradientUnits="userSpaceOnUse" x1="2138.21" y1="5277.12" x2="6722.9" y2="4737.07">
   <stop offset="0" style="stop-opacity:1; stop-color:#CB7F83"/>
   <stop offset="1" style="stop-opacity:1; stop-color:#F2C9CD"/>
  </linearGradient>
  <linearGradient id="id2" gradientUnits="userSpaceOnUse" x1="4336.85" y1="4271.27" x2="4303.44" y2="2339.63">
   <stop offset="0" style="stop-opacity:1; stop-color:#2E7910"/>
   <stop offset="0.439216" style="stop-opacity:1; stop-color:#67B804"/>
   <stop offset="1" style="stop-opacity:1; stop-color:#8DD008"/>
  </linearGradient>
 </defs>
 <g id="Layer_x0020_1">
  <metadata id="CorelCorpID_0Corel-Layer"/>
  <g id="_2434126014224">
   <g>
    <polygon class="fil0" points="5991.66,8424.85 5991.66,8460.19 6118.44,8460.19 6118.44,8522 5991.66,8522 5991.66,8573.93 6195.44,8573.93 6195.44,8635.75 5926.87,8635.75 5926.87,8362.43 6184.78,8362.43 6184.78,8424.85 "/>
   </g>
   <polygon class="fil1" points="5940.01,8622.61 5940.01,8375.57 6171.65,8375.57 6171.65,8411.71 5978.52,8411.71 5978.52,8473.33 6105.3,8473.33 6105.3,8508.87 5978.52,8508.87 5978.52,8587.07 6182.3,8587.07 6182.3,8622.61 "/>
   <g>
    <path class="fil0" d="M5606.22 8529.66l0 107.83 -68.24 0 0 -276.19 184.69 0c24.78,0 49.66,5.41 68.96,21.79 18.77,15.93 26.67,37.69 26.67,62.01 0,20.92 -6.86,39.63 -20.69,55.35 -9.07,10.3 -19.84,17.81 -31.99,22.72l72.57 114.33 -77.09 0 -70.09 -107.83 -84.78 0zm0 -65.87l116.45 0c6.6,0 15.69,-0.84 21,-5.26 4.16,-3.46 5.19,-8.31 5.19,-13.55 0,-5.01 -1,-9.85 -5.04,-13.12 -5.43,-4.39 -14.46,-5.27 -21.15,-5.27l-116.45 0 0 37.2z"/>
   </g>
   <path class="fil1" d="M5591.35 8514.78l0 107.83 -38.49 0 0 -246.44 169.81 0c25.26,0 45.03,6.12 59.34,18.26 14.31,12.16 21.41,29.04 21.41,50.67 0,17.47 -5.62,32.67 -16.98,45.52 -11.25,12.83 -25.96,20.72 -44.13,23.59l68.81 108.41 -41.96 0 -70.09 -107.83 -107.73 0zm0 -36.12l131.32 0c13.32,0 23.5,-2.87 30.51,-8.7 7,-5.82 10.56,-14.11 10.56,-24.98 0,-10.74 -3.55,-19.05 -10.56,-24.68 -7.01,-5.71 -17.19,-8.59 -30.51,-8.59l-131.32 0 0 66.95z"/>
   <g>
    <path class="fil0" d="M5367.14 8573.14l-114.09 0 -31.89 62.8 -70.8 0 139.26 -273.7 40.61 0 140.33 273.7 -71.34 0 -32.08 -62.8zm-83.67 -59.23l53.05 0 -26.37 -52.02 -26.69 52.02z"/>
   </g>
   <path class="fil1" d="M5172.1 8622.61l125.69 -247.04 24.29 0 126.67 247.04 -41.37 0 -32.08 -62.8 -130.43 0 -31.89 62.8 -40.88 0zm89.55 -95.37l96.57 0 -48 -94.69 -48.58 94.69z"/>
   <g>
    <path class="fil0" d="M5051.12 8500.54l53.9 39.91 -5.41 10.26c-15.33,29.09 -36.96,52.79 -65.34,69.43 -28.72,16.83 -60.43,24.28 -93.62,24.28 -49.48,0 -93.16,-15.97 -128.11,-51.31 -35.11,-35.51 -50.6,-79.78 -50.6,-129.46 0,-49.76 15.49,-94.16 50.73,-129.68 34.94,-35.22 78.43,-51.28 127.86,-51.28 30.61,0 60.02,6.5 87.13,20.94 26.67,14.2 48.06,34.46 64.28,59.96l6.88 10.82 -56.33 40.14 -7.19 -13.74c-8.81,-16.85 -21.54,-29.94 -38.06,-39.37 -17.46,-9.95 -36.52,-14.42 -56.59,-14.42 -31.14,0 -57.7,10.16 -79.29,32.75 -22.28,23.31 -31.52,51.85 -31.52,83.88 0,32.01 9.17,60.59 31.5,83.85 21.62,22.52 48.21,32.57 79.31,32.57 21.39,0 41.41,-4.97 59.5,-16.46 19.04,-12.07 33.07,-29.52 43.59,-49.25l7.37 -13.83z"/>
   </g>
   <path class="fil1" d="M5055.67 8520.72l31.99 23.69c-14.62,27.74 -34.75,49.18 -60.22,64.07 -25.38,14.91 -54.31,22.43 -86.79,22.43 -47.79,0 -87.29,-15.8 -118.5,-47.3 -31.09,-31.5 -46.7,-71.48 -46.7,-119.96 0,-48.58 15.61,-88.67 46.81,-120.17 31.3,-31.48 70.69,-47.28 118.27,-47.28 29.53,0 56.49,6.41 80.78,19.35 24.29,12.92 44.03,31.39 59.23,55.28l-33.27 23.7c-9.97,-19.07 -24.48,-34.07 -43.33,-44.84 -18.86,-10.74 -40,-16.19 -63.29,-16.19 -35.84,0 -65.56,12.34 -89.06,36.93 -23.5,24.59 -35.26,55.7 -35.26,93.21 0,37.61 11.76,68.71 35.26,93.21 23.5,24.48 53.22,36.72 89.06,36.72 25.08,0 47.28,-6.22 66.74,-18.56 19.44,-12.34 35.54,-30.41 48.28,-54.31z"/>
   <g>
    <path class="fil0" d="M4609.92 8568.81c-15.08,23.77 -35.15,42.27 -60.22,55.06 -26.04,13.28 -54.53,18.82 -83.62,18.82 -42.86,0 -82.8,-11.4 -115.37,-39.9 -30.92,-27.06 -46.28,-61.76 -46.28,-102.8 0,-41.15 15.36,-75.83 46.25,-103.07 32.52,-28.69 72.46,-40.21 115.41,-40.21 27.27,0 53.87,4.91 78.73,16.33 23.27,10.69 42.88,26.12 58.03,46.78l7.51 10.24 -51.1 35.47 -7.11 -9.81c-9.19,-12.67 -21.18,-22 -35.41,-28.48 -15.95,-7.27 -33.09,-10.23 -50.54,-10.23 -26.22,0 -50.48,6.63 -70.48,24.01 -17.89,15.54 -26.83,34.68 -26.83,58.4 0,23.74 8.98,42.85 26.92,58.36 20.02,17.31 44.17,24.04 70.39,24.04 18.16,0 36.24,-3.19 52.49,-11.55 16.35,-8.42 29.31,-21.5 39.76,-36.46l7.04 -10.1 50.83 35.07 -6.38 10.06z"/>
   </g>
   <path class="fil1" d="M4599.47 8562.18c-14.04,22.13 -32.5,39 -55.4,50.66 -22.81,11.65 -48.88,17.47 -78,17.47 -43.35,0 -79.08,-12.25 -107.22,-36.83 -28.04,-24.57 -42.06,-55.77 -42.06,-93.49 0,-37.81 14.02,-69.02 42.06,-93.8 28.14,-24.78 63.87,-37.12 107.22,-37.12 27.05,0 51.53,5.04 73.56,15.2 22.02,10.07 39.67,24.38 53.22,42.85l-30.71 21.32c-10.16,-14.01 -23.59,-24.87 -40.3,-32.48 -16.68,-7.61 -35.24,-11.34 -55.68,-11.34 -31.69,0 -57.86,8.98 -78.59,27.05 -20.72,17.96 -31.09,40.57 -31.09,67.74 0,27.14 10.37,49.76 31.2,67.72 20.83,18.07 46.98,27.05 78.48,27.05 21.92,0 41.37,-4.34 58.16,-12.93 16.78,-8.7 31.5,-22.13 44.24,-40.39l30.9 21.32z"/>
   <g>
    <polygon class="fil0" points="4167.3,8635.7 4167.3,8361.9 4232.57,8361.9 4232.57,8635.7 "/>
   </g>
   <polygon class="fil1" points="4180.39,8622.61 4180.39,8374.99 4219.48,8374.99 4219.48,8622.61 "/>
   <g>
    <polygon class="fil0" points="3918.81,8423.08 3814.55,8423.08 3814.55,8362.44 4087.83,8362.44 4087.83,8423.08 3983.57,8423.08 3983.57,8635.74 3918.81,8635.74 "/>
   </g>
   <polygon class="fil1" points="3931.94,8622.61 3931.94,8409.95 3827.68,8409.95 3827.68,8375.57 4074.7,8375.57 4074.7,8409.95 3970.44,8409.95 3970.44,8622.61 "/>
   <g>
    <path class="fil0" d="M3541.98 8595.07l31.3 -54.07 10.98 7.34c16.21,10.85 33.87,19.15 52.46,25.05 17.44,5.53 35.56,9 53.91,9 15.79,0 33.04,-2.46 46.47,-11.37 8.86,-5.88 14.72,-13.22 14.72,-24.14 0,-9.64 -3.78,-15.92 -12.19,-20.59 -14,-7.78 -37.03,-9.48 -52.69,-9.79 -28.44,-0.55 -73.63,-2.62 -98.71,-17.3 -22.11,-12.94 -31.31,-34.44 -31.31,-59.54 0,-25.97 11.77,-46.56 32.93,-61.38 23.64,-16.56 53.12,-21.59 81.45,-21.59 22.22,0 44.06,3.14 65.34,9.5 21.53,6.43 41.87,15.94 60.84,27.96l10.26 6.5 -32.51 53.44 -10.75 -7.25c-14.43,-9.72 -30.02,-17.28 -46.61,-22.57 -15.24,-4.87 -31.15,-7.91 -47.18,-7.91 -12.79,0 -27.74,1.61 -39.02,8.13 -5.84,3.37 -10.89,7.78 -10.89,14.94 0,6.55 3.59,9.56 9.44,11.94 13.94,5.65 40.19,6.01 55.09,6.01 31.69,0 68.87,4.02 95.91,22 24.53,16.31 35.63,40.58 35.63,69.64 0,28.37 -12.98,50.99 -35.39,68.01 -25.03,19.01 -55.65,25.63 -86.57,25.63 -25.39,0 -50.41,-3.73 -74.81,-10.76 -24.06,-6.93 -46.98,-16.99 -68.1,-30.48l-9.98 -6.37z"/>
   </g>
   <path class="fil1" d="M3558.63 8591.02l18.75 -32.39c16.98,11.36 35.56,20.25 55.6,26.56 20.14,6.43 39.28,9.58 57.65,9.58 22.02,0 39.79,-4.45 53.31,-13.43 13.53,-8.98 20.25,-20.44 20.25,-34.45 0,-14.13 -6.22,-24.5 -18.56,-31.41 -12.34,-6.8 -31.8,-10.56 -58.46,-11.35 -45.03,-0.6 -75.93,-5.82 -92.7,-15.61 -16.8,-9.86 -25.19,-26.15 -25.19,-48.86 0,-21.23 9.19,-38.32 27.65,-51.24 18.46,-12.94 43.24,-19.35 74.35,-19.35 21.22,0 41.76,2.95 61.8,8.98 19.95,5.92 39.2,14.8 57.76,26.56l-19.46 31.99c-15.39,-10.37 -31.99,-18.37 -49.76,-24.1 -17.77,-5.62 -34.75,-8.49 -50.94,-8.49 -18.75,0 -33.85,3.27 -45.22,9.79 -11.35,6.61 -17.07,15.1 -17.07,25.66 0,10.97 5.73,18.77 17.17,23.41 11.46,4.64 31.41,6.91 59.74,6.91 39.39,0 69.02,6.61 89.06,19.93 20.04,13.33 30.11,33.08 30.11,59.34 0,23.31 -10.16,42.66 -30.5,58.16 -20.35,15.41 -46.7,23.11 -79.09,23.11 -23.99,0 -47.69,-3.46 -71.38,-10.28 -23.59,-6.8 -45.21,-16.47 -64.86,-29.02z"/>
   <g>
    <polygon class="fil0" points="3408.96,8635.87 3408.96,8361.73 3474.57,8361.73 3474.57,8635.87 "/>
   </g>
   <polygon class="fil1" points="3422.22,8622.61 3422.22,8374.99 3461.31,8374.99 3461.31,8622.61 "/>
   <g>
    <polygon class="fil0" points="3142.24,8572.2 3325.88,8572.2 3325.88,8637.48 3074,8637.48 3074,8360.7 3142.24,8360.7 "/>
   </g>
   <polygon class="fil1" points="3088.86,8622.61 3088.86,8375.57 3127.37,8375.57 3127.37,8587.07 3311.01,8587.07 3311.01,8622.61 "/>
   <g>
    <path class="fil0" d="M2841.08 8642.33c-43.15,0 -83.54,-11.49 -116.43,-40.3 -30.89,-27.07 -46.65,-61.54 -46.65,-102.63 0,-41.05 15.49,-75.63 46.49,-102.59 32.92,-28.61 73.46,-39.77 116.58,-39.77 43.23,0 84.09,11.01 117.18,39.66 31.12,26.93 46.51,61.59 46.51,102.7 0,41.2 -15.67,75.72 -46.67,102.84 -33,28.86 -73.68,40.09 -117.02,40.09zm0 -60.19c26.71,0 52.34,-6.22 72.96,-23.86 18.2,-15.57 26.99,-34.94 26.99,-58.88 0,-23.96 -9,-43.23 -27.2,-58.81 -20.58,-17.62 -46.06,-23.95 -72.75,-23.95 -26.59,0 -51.96,6.24 -72.43,23.84 -18.15,15.6 -26.9,35.01 -26.9,58.92 0,23.9 8.76,43.31 26.9,58.9 20.47,17.6 45.84,23.84 72.43,23.84z"/>
   </g>
   <path class="fil1" d="M2841.08 8630.31c-43.92,0 -80.15,-12.43 -108.5,-37.32 -28.33,-24.78 -42.55,-55.98 -42.55,-93.59 0,-37.72 14.11,-68.92 42.36,-93.51 28.33,-24.59 64.56,-36.82 108.69,-36.82 44.54,0 80.96,12.23 109.31,36.72 28.23,24.48 42.36,55.68 42.36,93.61 0,37.81 -14.22,69 -42.57,93.79 -28.33,24.78 -64.66,37.12 -109.1,37.12zm0 -36.14c32.99,0 59.94,-8.89 80.78,-26.75 20.83,-17.77 31.2,-40.48 31.2,-68.02 0,-27.35 -10.46,-49.97 -31.41,-67.94 -20.93,-17.87 -47.79,-26.84 -80.57,-26.84 -32.78,0 -59.53,8.88 -80.27,26.75 -20.72,17.77 -31.09,40.48 -31.09,68.04 0,27.54 10.37,50.25 31.09,68.02 20.74,17.86 47.49,26.75 80.27,26.75z"/>
   <g>
    <polygon class="fil0" points="2373.57,8415.13 2533.24,8415.13 2533.24,8288.95 2601.64,8288.95 2601.64,8636.96 2533.24,8636.96 2533.24,8480.56 2373.57,8480.56 2373.57,8636.96 2304.57,8636.96 2304.57,8288.95 2373.57,8288.95 "/>
   </g>
   <polygon class="fil1" points="2318.93,8622.61 2318.93,8303.31 2359.22,8303.31 2359.22,8429.48 2547.59,8429.48 2547.59,8303.31 2587.29,8303.31 2587.29,8622.61 2547.59,8622.61 2547.59,8466.21 2359.22,8466.21 2359.22,8622.61 "/>
  </g>
  <g id="_2434126019920">
   <polygon class="fil2" points="5979.63,3347.79 5840.07,3542.72 5840.07,7105.2 5979.63,6946.26 "/>
   <polygon class="fil2" points="2202.3,7077.1 2100.52,7234.72 2100.52,3413.18 2202.3,3216.95 "/>
   <polygon class="fil2" points="2334.83,3347.79 2231.72,3542.72 5840.07,3542.72 5979.63,3347.79 "/>
   <polygon class="fil2" points="6112.15,7077.1 5971.26,7234.72 2100.52,7234.72 2202.3,7077.1 "/>
  </g>
  <path class="fil3" d="M2202.3 3216.95l3909.85 0 0 3860.15 -3909.85 0 0 -3860.15zm132.53 130.84l3644.8 0 0 3598.47 -3644.8 0 0 -3598.47z"/>
  <path class="fil4" d="M4242.01 5138.07c-10.95,134.8 45.46,162.3 -27.31,237.8 -151.2,1.69 -91.37,-101.38 -113.56,-236.61l-198.33 -0.75c-10.93,-12.09 -24.63,-24.1 -27.56,-30.37 -8.11,-8.45 -8.11,7.19 -15.87,-31.3 -3.1,-133.67 154.84,-74.86 238.59,-90.41 9.56,-101.25 -26.77,-228.52 79.03,-231.22 107.17,-1.33 69.71,151.26 79.01,239.13 137.92,10.73 109.48,-11.31 226.41,81.02 -62.42,42.62 -141.75,83.41 -240.41,62.72zm1729.25 2096.65l-137.13 0c-1.37,2.05 -4.42,1.41 -8.91,1.46 -1.9,4.36 -10.24,3.98 -10.57,4.77 -0.13,0.32 14.44,8.81 14.35,7.91 -0.09,-1.02 2.54,0.71 3.81,0.54 30.65,55.74 47.15,55.19 121.24,34.15 32.93,58.8 27.3,32.48 68.88,85.96 -12.4,70.11 -25.43,32.89 -18.74,111.32 43.11,27.78 21.24,14.86 52.35,20.98 13.83,2.7 5.47,-1.6 30.64,5.37 236.67,65.62 108.17,61.35 276.35,121.07 71.85,25.51 32.55,43.07 115.35,60.22 -23.91,-118.85 -207.1,-235.64 -293.83,-311.6 -78.5,-68.77 -106.81,-203.63 -213.79,-142.17zm-246.59 538.52c49.35,45.93 81.39,85.3 127.34,133.8 43.6,46 72.66,96.1 164.57,89.62 -5.33,-20.02 -3.33,-11.25 -10.76,-23.39 -39.15,-64.02 -94.62,-100.48 -113.26,-125.11 -11.55,-15.27 -34.06,-121.91 -167.9,-74.93zm-575.98 -70.07c-126.91,40.26 26.6,-9.73 -35.61,35.22 3.74,3.14 12.74,13.66 15.67,16.27 29.55,26.26 1.69,19.41 42.21,6.93 11.39,-73.6 -29.19,-122.55 38.3,-103.32 85.22,21.74 105.65,-7.44 151.37,57.78l62.07 -28.37c1.39,-0.54 6.07,-2.37 7.38,-2.87 15.87,-6.07 4.39,2.87 24.65,-10.37 -37.67,-55.1 -221.49,-300.6 -295.96,-232.28 -17.37,24.14 -17.81,-36.03 -14.57,41.8 1.46,35.71 28.4,83.56 65.86,105.72l-44.46 21.13c-30.41,9.32 10.2,-11.44 -22.84,2.63 3.12,47.15 16.53,53.48 5.95,89.72zm411.89 -434.55c9.49,56.85 11.08,24.22 -18.56,33.53 -70.7,34.17 -91.26,-57.29 -97.36,-67.44l-518.7 0c-17.75,0 -18.88,0 -31.35,0 -29.06,0 -39.69,0 -58.31,0 23.52,28.67 80.64,63.17 96.8,75.7l21 -0.19 18.56 10.57c27.97,-3.42 22.99,-10.5 19.8,16.06 21.13,0.43 17.52,-5 12.4,15.06l40.63 9.43c-9.09,-29.78 -16.61,-26.04 12.91,-19.5 -6.85,-28.29 -9.35,-18.77 22.13,-13.11l20.7 -9.69c45.05,-8.49 73.52,-17.62 128.54,-16.7 17.3,0.28 50.81,2.67 67.87,8.73 49.07,17.51 33.48,8.25 50.34,39.15 23.84,16.27 5,-19.52 27.58,31.56 9.13,20.68 9.82,39.46 12.72,65.56 2.39,3.63 4.87,8.66 6.09,11.5 47.28,110.23 82.59,129.71 188.45,194.31l38.79 25.13c-10.82,-71.93 -34.21,-99.19 32.65,-166.04 -18.31,-68.06 -13.37,-92.14 -29.45,-180.94 85.53,-42.28 -4.55,-6.97 62.67,-50.4 -44.84,-13.98 -4.02,3.51 -36.8,-16.78l-21.06 -21.72c4.23,-7.72 21.34,-7.72 -40.67,-7.72l-14.41 0 -13.94 33.91zm-2631.69 -4400.28l48.89 -6.91c0,-24.33 -6.44,-18.67 16.57,-19.59 20.59,-19.2 -37.59,-14.26 106.79,-33.96 144.68,-19.74 441.26,64.64 448.2,63.74 -132.58,2.26 -145.92,-145.68 -224.22,-176.5 -47.13,-18.54 -65.82,-19.27 -109.16,-48.88 -62.83,-42.89 -27.46,-41.7 -128.04,-47.84l-262.61 -68.08c-114.87,-34.54 -124.64,-33.21 -193.61,53.69 6.5,23.31 -8.26,18.73 36.24,49.8 -6.05,40.95 32.12,81.13 54.27,100.14 31.73,-43.58 -29.25,-78.24 34.53,-88.12 37.74,88.63 8.51,210.97 88.23,220.41l83.91 2.12zm948.78 153.72l25.3 23.2c24.65,62.8 100.22,107.43 133.28,173.76 263.57,0.04 345.06,0.62 462.84,0.62 4.92,-31.58 10.84,-63.63 19.18,-95.75l-119.87 -26.65c-24.21,-15.07 -52.67,-47.28 -80.14,-62.85 -101.91,-57.78 -482.66,-147.12 -578.14,-109.39l137.54 97.06zm87.67 545.57c21.83,-5.02 14.88,-7.87 11.12,18.8 21.04,-2.61 15.63,-7.12 12.66,17.2 19.91,-1.76 15.05,-6.59 13.24,15.91 21.36,-2.72 15.76,-7.25 13.02,17.51 20.01,-0.68 14.5,-5.33 12,18.28l10.88 17.02c23.18,-2.97 17.71,-8.06 13.58,18.11l11.54 17.02c21.73,-1.84 15.14,-6.74 15.97,19.2 80.4,123.25 140.21,239.62 184.09,440.9l-0.15 25.87 0.33 -9.64c3.04,-62.23 -2.16,-13.86 15.97,-33.1l-3.76 -9.47 76.93 -255.19c9.19,-21.04 8.9,-16.44 16.66,-42.3 13.86,-46.27 3.42,1.13 8.64,-41.89 -5.02,-32.56 -14.86,-30.83 9.44,-25.19l29.51 -57.37 15.93 -28.33 38.1 -52.63 7.17 -20.93c-5.58,-33.08 -16.1,-33.06 8.94,-24.16 7.48,-46.08 -0.28,-13.19 20.65,-23.76 -6.01,-46.87 36.76,-22.2 -52.63,-33.81 -19.2,-2.5 -51.19,1.13 -71.94,1.86 -51.42,1.84 -103.09,0.34 -154.73,-0.09 -38.68,-0.32 -266.11,-23.33 -263.16,30.19zm1005.35 663.29c22.52,-19.18 59.45,-28.23 115.73,-23.56 263.83,21.92 347.72,392.43 398.15,497.5 6.05,-99.88 -26.81,-235.19 -5.84,-310.85 54.4,-135.01 402.33,-84.25 253.14,487.97 -325.58,1248.87 -1910.24,1793.99 -2949.48,852.17 -255.25,-231.3 -625.22,-788.53 -561.8,-1323.33 -28.53,85.89 73.47,338.07 123.7,377.05 185.01,143.63 715.72,-313.54 1097.28,-477.7 157.61,-67.8 782.11,-285.4 712.9,93.57 -66.33,363.35 -404.13,285.38 -464.42,617.38 -55.87,307.7 268.06,540.5 569.41,491.79 279.22,-45.14 501.35,-358.24 326.65,-643.93 -83.63,-136.75 -222.83,-167.5 -266.44,-274.15 -128.13,-313.26 376.99,-581.41 764.58,215.56 -0.08,-8.11 -0.7,-16.61 -1.75,-25.45m-426.47 -1247.91c-194.31,207.89 -182.4,286.36 -271.72,429.52l-91.52 305.85c-36.97,-13.75 -25.23,-5.62 -43.41,-37.83l-57.46 -182.33c-32.11,-86.2 -65.39,-142.46 -99.22,-217.79l-31.61 -42.3c-33.87,37.17 -2.69,-7.98 -16.17,31.59l-14.63 91.76c-37.96,-54.81 -16.27,31.88 -135.1,-90.47 -100.84,2.59 -89.79,52.35 -148.29,35.71 -62.05,-17.68 -11.12,-39.07 -169.25,-38.4 -56.09,0.24 -195.46,-37.19 -302.76,-48.69 -47.88,20.81 -85.3,52.09 -107.32,46.12 -76.45,-20.7 -90.92,35.3 -162.79,-36.18 -161.85,3.51 -95,-25.62 -174.93,-34.11 -158.77,-16.85 -162.88,44.31 -270.74,-110.62l-119.45 5.46c48.3,46.34 42.49,109.35 93.1,161.31 99.52,102.15 128.3,84.49 132.69,116 8.13,58.12 -66.65,59.36 -104.57,80.72 -191.45,107.83 -41.8,-2.8 -216.98,-2.37 -56.24,-2.39 -69.19,4.45 -109.14,-13.94 -373.65,-9.79 -179.98,-94.9 -883.02,-40.01 -157.83,12.32 -272.17,163.3 -374.29,270.71 -43.49,45.74 -36.72,34.88 -39.13,117.12 -8.04,275.27 32.89,141.86 49.27,287.72 24.31,216.16 147.87,285.04 137.02,349.74 -27.01,50.55 -35.9,25.51 -48.82,95.56 -34.83,188.96 95.74,297.48 216.93,407.16 36.87,33.38 51.06,27.2 91.46,67.93 54.17,54.61 95.99,101.18 160.37,157.87 53.7,47.28 35.65,17.75 92.83,51.47 74.89,44.15 14.78,62.12 138.05,103.31 188.81,63.08 184.73,64.21 379.62,174.61 147.2,83.41 179.19,42.96 202.22,113.7l168.95 50.02c66.8,27.5 -6.56,-10.35 32.76,19.8 31.41,24.08 -21.32,16.29 53.74,39.09 44.05,13.39 102.66,18.84 153.78,34.26 98.41,29.7 23.87,25.32 142.61,23.09 102.98,136.75 19.52,53.35 173.67,89.11 69.93,16.21 26.19,19.18 83.35,48.54 53.7,27.59 57.39,6.46 114.81,28.1 20.38,7.67 54.4,31.24 86.47,41.14 41.38,12.75 78.13,9.46 120.77,25 18.92,6.88 52.05,29.55 82.11,43.45 33.53,15.48 69.04,30.56 100.26,41.01 76.06,25.47 143.89,32.16 214.17,54.53 79.09,25.19 130.82,55.47 191.34,77.04 120.77,43.06 222.77,98.04 335.37,163.17l31.74 18.48c2.39,1.41 7.37,3.98 10.69,6.5l1386.24 0.99 0 -80.68c-141.96,-76.23 -76.13,-17.51 -136.62,-94.77 -85.85,-109.63 -78.44,-40.14 -213.24,-104.29 -76.72,-36.5 -259.98,-118.63 -219.8,-242.19 13.9,-32.99 226.69,-25.51 389.11,61.63 102.17,54.81 191.8,70.97 248.56,87.71l-470.17 -254.52c415.11,175.75 221.4,15.05 366.15,1.88 96.16,-8.75 272.49,83.48 317.72,75.55 -106.81,-102.06 -49.69,-103 -57.54,-143.72 -4.42,-22.99 102.11,76.42 130.55,54.44 -8,-100.2 -30.26,-105.1 28.7,-159.05 -2.74,-3.17 -6.89,-12.26 -8.02,-9.67 -1.13,2.56 -6.07,-7.67 -7.59,-9.88 -62.61,-92.03 -3.12,-38.21 -60.86,-85.34 -52.35,-42.72 -74.16,-11.7 -85.04,-96.81 124.96,-26.56 124.24,5.11 199.46,69.24 -29,-44.13 43.09,-46.55 124.17,10.82 94.09,66.59 291.84,93.85 381.56,192.62l-146.86 -160.27 -2.59 -52.15 169.83 70.12 -169.14 -124.28 72.43 13.21 156.54 51.79c-90,-36.82 4.73,-127.85 -78.58,-172.78 -0.11,-104.37 -69.48,-126.87 -58.89,-291.46 11.37,-9.75 80.63,60.13 85.66,56.3 13.71,-10.43 -27.24,-41.65 17.11,-41.72 7.23,-78.84 -11.23,-93.31 57.52,-108.24 77.88,-16.91 92.76,25.85 146,29.17 98.98,6.2 -2.65,-91.16 116.07,-90.84 44.88,0.11 37.59,62.63 74.93,64.15 21.75,0.88 105.94,18.41 127.36,13.43 74.43,-17.28 -76.08,-118.57 -62.99,-170.25 17.53,-69.11 276.91,120.31 291.04,96.72 6.12,-10.2 -207.35,-203.82 -217.89,-237.5l107 -74.65c-31.86,-60.09 -302.28,-146.18 -359.5,-181.5 -29.41,-18.16 -15.31,-101.53 -45.42,-124.84 -70.72,-54.74 -132.94,21.41 -150.02,-81.98 -25.41,-153.92 -74.14,-154.3 -136.87,-209.36l-16.36 -16.04c-109.65,-114.31 -151.31,-77.96 -278.13,-198.56l-15.89 -15.46c-2.35,-2.09 -5.75,-5.35 -8.15,-7.35l-117.89 -76.02c-21.79,-9.46 -29.3,-7.36 -49.2,-15.7 -46.31,-19.41 -65.37,-57.5 -94.13,-91.69 -22,-26.17 -14.03,-12.46 -31.18,-33.83 -39.19,-48.84 -18.19,-45.03 -49.24,-78.41 -58.87,-63.32 -239.17,-162.58 -304.11,-220.42 -34,-30.3 -27.26,-30.41 -69.82,-56.96 -288.46,-179.73 9.19,-3.81 -159.91,-139.14 -86.54,0 -53.99,0 -274.56,0 -40.17,0 -111.77,0 -635.32,-5.69z"/>
  <path class="fil5" d="M5091.54 4803.29c-387.59,-796.96 -892.71,-528.81 -764.58,-215.56 43.62,106.64 182.81,137.39 266.44,274.15 174.7,285.68 -47.43,598.78 -326.65,643.92 -301.35,48.71 -625.27,-184.09 -569.41,-491.78 60.28,-332 398.09,-254.03 464.41,-617.38 69.2,-378.96 -555.3,-161.36 -712.9,-93.57 -381.56,164.16 -912.26,621.33 -1097.28,477.7 -50.23,-38.98 -152.23,-291.17 -123.7,-377.05 -63.42,534.81 306.55,1092.04 561.8,1323.33 1039.23,941.81 2623.9,396.7 2949.48,-852.17 149.19,-572.22 -198.74,-622.98 -253.15,-487.97 -20.96,75.67 11.89,210.97 5.84,310.85 -50.42,-105.06 -134.31,-475.57 -398.15,-497.5 -324.88,-26.98 -4.09,403.18 -2.18,603.03z"/>
  <path class="fil6" d="M4172.05 4755.15l0 0c39.86,0 72.47,32.62 72.47,72.47l0 166.65 166.65 0c39.85,0 72.47,32.61 72.47,72.47l0 0c0,39.86 -32.62,72.47 -72.47,72.47l-166.65 0 0 166.66c0,39.86 -32.61,72.47 -72.47,72.47l0 0c-39.86,0 -72.47,-32.61 -72.47,-72.47l0 -166.66 -166.66 0c-39.86,0 -72.47,-32.61 -72.47,-72.47l0 0c0,-39.86 32.61,-72.47 72.47,-72.47l166.66 0 0 -166.65c0,-39.85 32.61,-72.47 72.47,-72.47z"/>
  <path class="fil7" d="M2472.52 3072.21c438.19,176.15 801.06,969.37 1408.37,569.56 209.73,229.4 341.11,469.24 385.19,720.68 56.95,-321.02 206.57,-581.24 418.19,-797.36 731.59,173.36 837.43,-564.45 1393.67,-984.7 -558.89,-237.8 -1641.81,-46.94 -1592.52,794.2 200,-172.82 435.06,-394.52 679.24,-501.16 -425.08,308.02 -780.06,669.3 -884.44,1220.6 -118.1,-543.16 -493.35,-766.18 -894.65,-956.77 314.02,17.75 552.54,198.88 714.65,332.59 -15.29,-534.5 -797.36,-987.54 -1627.69,-397.64z"/>
  <path class="fil8" d="M2432.81 8066.02c-43.39,0 -78.39,-4.53 -104.95,-13.6 -26.56,-9.07 -46.96,-18.15 -61.22,-27.22l0 34.02 -113.69 0 0 -516.98c0,-10.37 -3.4,-17.66 -10.2,-21.87 -6.8,-4.21 -15.72,-6.31 -26.73,-6.31l0 -13.6c6.48,-4.54 13.28,-8.43 20.4,-11.67 6.48,-3.25 14.11,-5.99 22.84,-8.26 8.75,-2.27 18.3,-3.4 28.67,-3.4 20.74,0 36.61,3.4 47.62,10.2 11.01,6.8 19.11,15.72 24.29,26.73 16.19,-9.07 36.76,-17.66 61.7,-25.76 24.95,-8.09 53.61,-12.15 86,-12.15 48.59,0 92.65,7.29 132.17,21.87 39.52,14.58 73.2,34.51 101.06,59.77 27.86,25.27 49.4,55.23 64.62,89.89 15.22,34.66 22.84,72.4 22.84,113.22 0,45.98 -7.94,87.78 -23.82,125.35 -15.87,37.57 -37.4,69.64 -64.62,96.2 -27.2,26.56 -58.63,47.13 -94.26,61.71 -35.63,14.58 -73.2,21.87 -112.73,21.87zm-166.17 -511.13l0 426.6c14.91,5.82 34.83,11.81 59.77,17.98 24.95,6.14 51.66,9.22 80.17,9.22 28.5,0 54.57,-5.35 78.22,-16.04 23.65,-10.69 44.05,-26.07 61.22,-45.83 17.17,-19.74 30.45,-43.71 39.84,-72.06 9.39,-28.18 14.09,-59.77 14.09,-94.92 0,-41.46 -6.63,-78.22 -19.91,-109.97 -13.28,-31.89 -30.62,-58.46 -52,-79.83 -21.38,-21.39 -45.18,-37.74 -71.42,-48.76 -26.24,-11.01 -52.31,-16.51 -78.24,-16.51 -23.31,0 -44.37,1.78 -63.16,5.33 -18.78,3.57 -35.31,7.94 -49.55,13.13 0.64,2.59 0.96,6.48 0.96,11.67zm648.17 504.33l-113.69 0 0 -280.83c0,-16.85 -3.89,-27.7 -11.67,-32.55 -7.78,-4.87 -16.19,-7.29 -25.27,-7.29l-0.98 -12.64c7.14,-5.19 14.58,-9.71 22.35,-13.6 7.14,-3.23 14.9,-6.31 23.33,-9.22 8.42,-2.93 17.17,-4.38 26.22,-4.38 18.8,0 35.31,4.7 49.57,14.09 14.24,9.39 23.65,26.39 28.18,51.02 20.74,-18.79 39.52,-32.56 56.35,-41.31 16.85,-8.74 34.34,-13.11 52.48,-13.11 16.85,0 30.28,3.72 40.33,11.18 10.03,7.44 15.7,17.66 17,30.6 1.3,12.96 -1.95,25.11 -9.71,36.44 -7.78,11.35 -21.38,17 -40.82,17 -12.3,0 -22.04,-1.93 -29.15,-5.82 -7.12,-3.89 -12.3,-8.42 -15.56,-13.6 -4.53,-5.84 -7.44,-12.65 -8.74,-20.4 -3.89,3.23 -9.07,6.8 -15.55,10.69 -5.19,3.87 -11.67,8.58 -19.44,14.09 -7.76,5.5 -16.19,12.47 -25.26,20.89l0 248.77zm179.79 -112.73c19.44,0 34.83,6.16 46.15,18.46 11.35,12.31 17.02,26.24 17.02,41.8 0,14.24 -5.35,27.69 -16.04,40.31 -10.69,12.64 -27.37,18.95 -50.04,18.95 -20.74,0 -36.44,-5.99 -47.13,-17.98 -10.69,-11.98 -16.04,-25.76 -16.04,-41.29 0,-6.48 1.3,-13.28 3.89,-20.42 2.59,-7.12 6.65,-13.6 12.15,-19.42 5.5,-5.84 12.47,-10.69 20.89,-14.58 8.42,-3.89 18.15,-5.84 29.16,-5.84zm924.12 -461.58c0,14.89 -4.53,28.67 -13.6,41.31 -9.07,12.62 -24.29,18.93 -45.67,18.93l-131.19 0 0 514.07 -142.84 0 0 -514.07 -138.97 0c-6.48,0 -11.67,0.66 -15.55,1.96 -3.89,1.3 -7.12,2.59 -9.71,3.89 -2.59,1.94 -4.53,3.55 -5.82,4.85l-9.73 -9.71c0,-14.89 4.55,-28.34 13.62,-40.33 9.05,-11.98 23.97,-17.98 44.69,-17.98l413 0c12.3,0 21.06,-1.61 26.24,-4.85 2.59,-1.95 4.53,-3.89 5.82,-5.84l9.71 7.78zm221.57 495.6c0,10.37 2.1,21.21 6.31,32.56 4.21,11.33 11.83,18.95 22.84,22.82 5.19,1.3 9.07,1.95 11.67,1.95l0.96 12.62c-3.23,3.89 -7.76,7.29 -13.6,10.22 -5.82,2.91 -11.81,5.33 -17.98,7.29 -6.16,1.94 -12.48,3.4 -18.96,4.36 -6.48,0.98 -11.98,1.46 -16.51,1.46 -15.55,0 -30.28,-3.23 -44.22,-9.71 -13.92,-6.48 -25.42,-15.24 -34.49,-26.24 -11.02,11.01 -24.46,20.4 -40.33,28.18 -15.87,7.78 -34.51,11.67 -55.88,11.67 -42.76,0 -75.46,-8.41 -98.13,-25.26 -22.69,-16.85 -34.02,-41.14 -34.02,-72.89 0,-27.86 7.78,-50.21 23.31,-67.04 15.56,-16.85 34.19,-30.13 55.89,-39.84 21.7,-9.73 44.71,-16.36 69,-19.93 24.29,-3.57 45.18,-5.67 62.69,-6.31l0 -35.95c0,-7.78 -1.3,-15.56 -3.89,-23.33 -2.59,-7.78 -6.48,-14.73 -11.67,-20.89 -5.19,-6.16 -11.67,-11.33 -19.44,-15.55 -7.78,-4.21 -17.17,-6.31 -28.18,-6.31 -16.19,0 -29.96,4.21 -41.31,12.65 -11.33,8.41 -16.34,20.08 -15.05,34.98 0.64,10.37 -2.76,20.08 -10.22,29.15 -7.44,9.07 -18.3,13.6 -32.56,13.6 -11.65,0 -21.85,-3.57 -30.6,-10.69 -8.75,-7.12 -13.77,-15.87 -15.06,-26.24 -0.64,-11.65 2.91,-23.31 10.69,-34.98 7.78,-11.67 18.78,-22.35 33.04,-32.07 14.26,-9.71 30.77,-17.49 49.56,-23.33 18.79,-5.82 38.89,-8.74 60.26,-8.74 29.15,0 54.57,4.21 76.28,12.63 21.7,8.43 39.67,19.27 53.93,32.55 14.24,13.28 25.09,27.86 32.55,43.73 7.44,15.87 11.81,31.26 13.11,46.15 1.3,23.97 1.61,47.79 0.98,71.44 -0.66,23.63 -0.98,48.74 -0.98,75.31zm-171.04 43.73c9.07,0 17.98,-1.79 26.73,-5.35 8.74,-3.57 17,-7.93 24.78,-13.11 -0.64,-3.25 -1.13,-6.65 -1.47,-10.2 -0.32,-3.57 -0.47,-7.29 -0.47,-11.18l0 -104c-14.91,3.89 -28.83,9.24 -41.8,16.04 -12.96,6.8 -24.29,14.41 -34,22.84 -9.73,8.42 -17.17,17.32 -22.35,26.71 -5.19,9.39 -7.46,18.95 -6.8,28.67 1.3,12.32 5.65,23.65 13.11,34.02 7.46,10.37 21.55,15.56 42.27,15.56zm436.33 -508.24c0,-22.02 -3.57,-38.55 -10.85,-49.56 -7.29,-11.01 -15.07,-16.85 -23.65,-17.49 -8.56,-0.66 -16.34,3.57 -23.63,12.63 -7.29,9.07 -10.86,22.67 -10.86,40.82l0 135.08c11.18,-7.78 21.06,-16.85 29.64,-27.22 8.42,-10.37 15.7,-21.06 21.55,-32.07 5.99,-11.01 10.35,-21.87 13.43,-32.56 2.91,-10.69 4.37,-20.57 4.37,-29.64zm-258.5 98.15c3.25,4.55 11.35,11.67 24.31,21.38 12.96,9.73 32.07,16.85 57.33,21.38l0 -123.4c0,-11.67 1.45,-25.11 4.38,-40.33 2.91,-15.24 8.41,-29.96 16.51,-44.22 8.09,-14.26 19.44,-26.24 34.02,-35.95 14.57,-9.71 33.19,-14.58 55.87,-14.58 29.15,0 52,4.7 68.51,14.09 16.53,9.39 28.83,20.4 36.93,33.04 8.1,12.62 13.28,25.09 15.56,37.42 2.26,12.3 3.4,21.38 3.4,27.2 0,16.85 -3.25,34.17 -9.73,52 -6.63,17.81 -15.39,34.66 -26.54,50.53 -11.03,15.87 -24.46,30.45 -40.18,43.73 -15.54,13.26 -32.55,23.48 -50.85,30.6l0.66 90.37c5.82,-7.12 13.11,-15.22 21.85,-24.29 8.59,-9.07 18.47,-17.49 29.49,-25.27 11.01,-7.78 23.31,-14.43 36.76,-19.93 13.6,-5.5 27.86,-8.25 42.75,-8.25 12.8,0 24.95,1.77 36.28,5.33 11.35,3.57 21.38,9.39 30.13,17.49 8.59,8.09 15.39,19.12 20.25,33.04 4.85,13.94 7.29,31.58 7.29,52.96l0 196.3c0,12.31 2.42,20.89 7.29,25.76 4.85,4.87 14.41,7.29 28.67,7.29l0 13.6c-6.48,5.18 -13.28,9.71 -20.42,13.6 -6.48,3.25 -13.6,6.16 -21.38,8.75 -7.61,2.59 -16.02,3.89 -24.94,3.89 -28.33,0 -48.26,-8.58 -59.76,-25.75 -11.5,-17.17 -17.34,-39.35 -17.34,-66.57l0 -175.88c0,-16.85 -2.57,-28.5 -7.76,-34.98 -5.35,-6.48 -13.13,-9.71 -23.65,-9.71 -7.14,0 -14.89,2.42 -23.48,7.27 -8.43,4.87 -16.68,10.86 -24.46,18 -7.78,7.12 -15.24,14.41 -22.04,21.85 -6.97,7.46 -12.3,13.45 -16.19,17.98l0 229.34 -107.86 0 0 -365.38c-16.85,-3.89 -30.94,-8.91 -42.26,-15.07 -11.35,-6.14 -20.42,-12.79 -27.22,-19.91 -6.8,-7.14 -11.81,-13.94 -15.07,-20.42 -3.23,-6.46 -4.85,-11.65 -4.85,-15.54l7.76 -8.76zm682.19 84.55c25.26,0 50.53,4.7 75.8,14.09 25.27,9.39 46.16,21.38 62.67,35.95 16.53,14.58 26.41,31.09 29.64,49.56 3.25,18.46 -4.53,36.44 -23.31,53.93 -9.73,9.07 -24.31,16.36 -43.73,21.87 -19.44,5.5 -40.65,9.56 -63.66,12.15 -22.99,2.59 -46.31,4.21 -69.96,4.87 -23.65,0.64 -44.54,0.96 -62.69,0.96 3.25,33.7 14.9,60.73 34.98,81.15 20.08,20.4 50.21,30.6 90.37,30.6 25.27,0 46.81,-3.72 64.62,-11.18 17.83,-7.44 32.24,-15.7 43.26,-24.78 12.94,-11.01 23.63,-23.31 32.07,-36.91l10.69 1.94c1.3,17.49 -1.78,34.98 -9.24,52.46 -7.44,17.51 -18.61,33.04 -33.51,46.66 -14.91,13.6 -33.7,24.61 -56.37,33.02 -22.67,8.43 -48.91,12.64 -78.7,12.64 -26.56,0 -52.32,-3.4 -77.26,-10.2 -24.93,-6.8 -47.45,-17.49 -67.53,-32.06 -20.08,-14.58 -36.12,-33.04 -48.11,-55.4 -11.98,-22.35 -17.98,-49.41 -17.98,-81.15 0,-27.86 5.19,-53.93 15.56,-78.22 10.37,-24.29 24.78,-45.52 43.24,-63.64 18.46,-18.15 40.48,-32.41 66.08,-42.78 25.59,-10.35 53.28,-15.54 83.09,-15.54zm2.91 43.73c-14.26,0 -27.05,3.55 -38.38,10.69 -11.35,7.12 -21.23,16.51 -29.64,28.18 -8.44,11.67 -15.24,24.61 -20.42,38.87 -5.19,14.26 -8.41,28.52 -9.71,42.75 11.67,-0.64 24.14,-2.1 37.42,-4.36 13.28,-2.27 26.22,-5.03 38.87,-8.26 12.62,-3.25 24.29,-7.14 34.98,-11.67 10.69,-4.53 18.95,-9.71 24.78,-15.56 7.14,-7.12 12.32,-15.38 15.56,-24.78 3.25,-9.39 3.72,-18.13 1.46,-26.24 -2.27,-8.09 -7.78,-15.04 -16.53,-20.89 -8.73,-5.82 -21.53,-8.74 -38.37,-8.74zm353.72 316.79l-113.69 0 0 -280.83c0,-16.85 -3.89,-27.7 -11.67,-32.55 -7.78,-4.87 -16.19,-7.29 -25.27,-7.29l-0.98 -12.64c7.14,-5.19 14.58,-9.71 22.35,-13.6 7.14,-3.23 14.9,-6.31 23.33,-9.22 8.42,-2.93 17.17,-4.38 26.22,-4.38 18.8,0 35.31,4.7 49.57,14.09 14.24,9.39 23.65,26.39 28.18,51.02 20.74,-18.79 39.52,-32.56 56.36,-41.31 16.85,-8.74 34.34,-13.11 52.48,-13.11 16.85,0 30.28,3.72 40.33,11.18 10.03,7.44 15.7,17.66 17,30.6 1.3,12.96 -1.95,25.11 -9.71,36.44 -7.78,11.35 -21.38,17 -40.82,17 -12.3,0 -22.04,-1.93 -29.15,-5.82 -7.12,-3.89 -12.3,-8.42 -15.56,-13.6 -4.53,-5.84 -7.44,-12.65 -8.74,-20.4 -3.89,3.23 -9.07,6.8 -15.55,10.69 -5.19,3.87 -11.67,8.58 -19.44,14.09 -7.76,5.5 -16.19,12.47 -25.26,20.89l0 248.77zm527.67 -78.71c0,10.37 2.1,21.21 6.31,32.56 4.21,11.33 11.83,18.95 22.84,22.82 5.19,1.3 9.07,1.95 11.67,1.95l0.96 12.62c-3.23,3.89 -7.76,7.29 -13.6,10.22 -5.82,2.91 -11.81,5.33 -17.98,7.29 -6.16,1.94 -12.47,3.4 -18.96,4.36 -6.48,0.98 -11.98,1.46 -16.51,1.46 -15.55,0 -30.28,-3.23 -44.22,-9.71 -13.92,-6.48 -25.42,-15.24 -34.49,-26.24 -11.03,11.01 -24.46,20.4 -40.33,28.18 -15.87,7.78 -34.5,11.67 -55.88,11.67 -42.76,0 -75.46,-8.41 -98.13,-25.26 -22.69,-16.85 -34.02,-41.14 -34.02,-72.89 0,-27.86 7.78,-50.21 23.31,-67.04 15.55,-16.85 34.19,-30.13 55.88,-39.84 21.7,-9.73 44.71,-16.36 69,-19.93 24.29,-3.57 45.18,-5.67 62.69,-6.31l0 -35.95c0,-7.78 -1.3,-15.56 -3.89,-23.33 -2.59,-7.78 -6.48,-14.73 -11.67,-20.89 -5.19,-6.16 -11.67,-11.33 -19.44,-15.55 -7.78,-4.21 -17.17,-6.31 -28.18,-6.31 -16.19,0 -29.96,4.21 -41.31,12.65 -11.33,8.41 -16.34,20.08 -15.05,34.98 0.64,10.37 -2.76,20.08 -10.22,29.15 -7.44,9.07 -18.3,13.6 -32.56,13.6 -11.65,0 -21.85,-3.57 -30.6,-10.69 -8.76,-7.12 -13.77,-15.87 -15.07,-26.24 -0.64,-11.65 2.91,-23.31 10.69,-34.98 7.78,-11.67 18.78,-22.35 33.04,-32.07 14.26,-9.71 30.77,-17.49 49.55,-23.33 18.79,-5.82 38.89,-8.74 60.26,-8.74 29.15,0 54.57,4.21 76.28,12.63 21.7,8.43 39.67,19.27 53.93,32.55 14.24,13.28 25.09,27.86 32.56,43.73 7.44,15.87 11.81,31.26 13.11,46.15 1.3,23.97 1.61,47.79 0.98,71.44 -0.66,23.63 -0.98,48.74 -0.98,75.31zm-171.04 43.73c9.07,0 17.98,-1.79 26.73,-5.35 8.74,-3.57 17,-7.93 24.78,-13.11 -0.64,-3.25 -1.13,-6.65 -1.46,-10.2 -0.32,-3.57 -0.47,-7.29 -0.47,-11.18l0 -104c-14.91,3.89 -28.83,9.24 -41.8,16.04 -12.96,6.8 -24.29,14.41 -34,22.84 -9.73,8.42 -17.17,17.32 -22.35,26.71 -5.19,9.39 -7.46,18.95 -6.8,28.67 1.3,12.32 5.65,23.65 13.11,34.02 7.46,10.37 21.55,15.56 42.27,15.56zm293.48 -536.42c18.78,0 32.06,5.99 39.84,17.98 7.78,11.99 11.65,28.03 11.65,48.11 0,9.07 -2.11,23.31 -6.31,42.75 -4.21,19.44 -8.91,39.52 -14.09,60.24 -5.19,20.74 -10.2,39.69 -15.06,56.86 -4.85,17.17 -7.93,28.33 -9.22,33.51l-14.58 0c-8.41,-30.45 -16.19,-58.63 -23.33,-84.53 -5.82,-22.04 -11.18,-43.58 -16.02,-64.62 -4.87,-21.06 -7.29,-35.81 -7.29,-44.22 0,-20.08 4.04,-36.12 12.13,-48.11 8.11,-11.98 22.2,-17.98 42.29,-17.98zm277.92 191.44l34.02 34.02 0 9.71c0,8.41 1.94,16.36 5.83,23.8 3.89,7.46 8.75,14.58 14.57,21.39 5.84,6.8 11.67,12.94 17.49,18.45 5.84,5.52 10.69,10.22 14.58,14.11 9.07,9.06 18.63,18.45 28.67,28.18 10.05,9.71 19.12,20.23 27.22,31.58 8.09,11.35 14.72,23.8 19.91,37.42 5.19,13.6 7.78,28.5 7.78,44.69 0,22.04 -5.02,41.46 -15.07,58.31 -10.03,16.85 -23.16,30.94 -39.35,42.26 -16.19,11.35 -34.49,19.93 -54.91,25.76 -20.4,5.84 -40.97,8.75 -61.71,8.75 -27.84,0 -50.85,-2.91 -68.98,-8.75 -18.15,-5.82 -32.56,-13.28 -43.24,-22.35 -10.69,-9.06 -18.15,-18.94 -22.35,-29.63 -4.21,-10.69 -6.31,-21.22 -6.31,-31.59 0,-16.83 5.66,-30.11 17,-39.84 11.33,-9.71 24.46,-14.56 39.35,-14.56 15.56,0 27.69,5.17 36.44,15.54 8.73,10.37 13.11,22.04 13.11,35 0,7.76 -1.78,15.39 -5.33,22.82 -3.57,7.46 -5.99,14.09 -7.29,19.93 -1.3,5.82 0.32,10.52 4.85,14.09 4.55,3.55 14.91,5.33 31.11,5.33 7.78,0 15.87,-1.78 24.29,-5.33 8.41,-3.57 16.04,-8.9 22.84,-16.04 6.8,-7.12 12.47,-16.36 17,-27.69 4.52,-11.34 6.8,-24.78 6.8,-40.33 0,-20.08 -3.08,-38.54 -9.22,-55.39 -6.16,-16.83 -13.77,-32.39 -22.84,-46.65 -9.07,-14.24 -18.63,-27.69 -28.67,-40.33 -10.05,-12.62 -18.63,-24.78 -25.75,-36.42l-76.78 76.75 -34 -34.98 138.95 -137.99z"/>
  <g id="_2399132957136">
   <polygon class="fil9" points="14903.23,8874.01 14903.23,8644.43 15118.49,8644.43 15118.49,8678.01 14939.01,8678.01 14939.01,8735.27 15056.83,8735.27 15056.83,8768.3 14939.01,8768.3 14939.01,8840.98 15128.4,8840.98 15128.4,8874.01 "/>
   <path class="fil9" d="M14457.83 8773.81l0 100.2 -35.79 0 0 -229.03 157.83 0c23.49,0 41.84,5.69 55.15,16.97 13.31,11.29 19.91,26.98 19.91,47.07 0,16.24 -5.23,30.37 -15.78,42.3 -10.46,11.93 -24.13,19.27 -41.02,21.93l63.96 100.75 -39 0 -65.15 -100.2 -100.11 0zm0 -33.58l122.04 0c12.39,0 21.84,-2.66 28.35,-8.07 6.51,-5.41 9.82,-13.12 9.82,-23.22 0,-10 -3.31,-17.71 -9.82,-22.94 -6.52,-5.32 -15.97,-7.98 -28.35,-7.98l-122.04 0 0 62.21z"/>
   <path class="fil9" d="M13946.83 8874.01l116.81 -229.58 22.57 0 117.73 229.58 -38.45 0 -29.82 -58.36 -121.22 0 -29.64 58.36 -37.99 0zm83.23 -88.64l89.74 0 -44.6 -88 -45.14 88z"/>
   <path class="fil9" d="M13779.41 8795.15c-16.22,25.6 -37.6,45.15 -64.11,58.63 -26.4,13.48 -56.57,20.23 -90.29,20.23 -50.17,0 -91.55,-14.17 -124.12,-42.63 -32.46,-28.46 -48.69,-64.58 -48.69,-108.24 0,-43.77 16.23,-79.89 48.69,-108.57 32.57,-28.69 73.94,-42.98 124.12,-42.98 31.31,0 59.66,5.83 85.15,17.6 25.48,11.66 45.94,28.23 61.6,49.6l-35.55 24.69c-11.77,-16.23 -27.31,-28.8 -46.63,-37.6 -19.31,-8.8 -40.8,-13.14 -64.46,-13.14 -36.69,0 -66.97,10.4 -90.97,31.31 -24,20.8 -36,46.97 -36,78.4 0,31.43 12,57.6 36.12,78.41 24.11,20.91 54.4,31.31 90.85,31.31 25.37,0 47.89,-5.03 67.32,-14.97 19.43,-10.06 36.46,-25.6 51.2,-46.75l35.77 24.69z"/>
   <path class="fil9" d="M13260.56 8810.69c-13.03,20.56 -30.19,36.24 -51.48,47.07 -21.19,10.83 -45.42,16.24 -72.49,16.24 -40.28,0 -73.5,-11.38 -99.65,-34.22 -26.06,-22.85 -39.09,-51.85 -39.09,-86.9 0,-35.14 13.03,-64.14 39.09,-87.17 26.15,-23.03 59.37,-34.5 99.65,-34.5 25.14,0 47.9,4.68 68.36,14.13 20.46,9.36 36.89,22.66 49.46,39.82l-28.54 19.82c-9.45,-13.03 -21.93,-23.12 -37.44,-30.19 -15.5,-7.06 -32.76,-10.55 -51.75,-10.55 -29.45,0 -53.77,8.35 -73.04,25.14 -19.27,16.7 -28.9,37.71 -28.9,62.94 0,25.24 9.63,46.25 29,62.95 19.36,16.79 43.68,25.14 72.94,25.14 20.37,0 38.45,-4.04 54.05,-12.02 15.6,-8.07 29.27,-20.56 41.11,-37.53l28.72 19.82z"/>
   <polygon class="fil9" points="12713.22,8874.01 12713.22,8575.61 12750.66,8575.61 12750.66,8874.01 "/>
   <g>
    <polygon class="fil0" points="12322.12,8709.69 12225.22,8709.69 12225.22,8611.1 12521.46,8611.1 12521.46,8709.69 12424.57,8709.69 12424.57,8907.34 12322.12,8907.34 "/>
   </g>
   <polygon class="fil9" points="12355.45,8874.01 12355.45,8676.36 12258.56,8676.36 12258.56,8644.43 12488.13,8644.43 12488.13,8676.36 12391.24,8676.36 12391.24,8874.01 "/>
   <g>
    <path class="fil0" d="M11802.76 8842.95l34.35 -59.3 14.78 9.89c14.66,9.81 30.61,17.32 47.43,22.65 15.71,4.98 32.04,8.12 48.55,8.12 13.58,0 28.77,-2.02 40.33,-9.7 6.75,-4.48 11.37,-9.8 11.37,-18.14 0,-7.07 -2.52,-11.19 -8.69,-14.61 -12.11,-6.74 -33.01,-8.2 -46.54,-8.46 -27.57,-0.53 -69.94,-2.54 -94.26,-16.78 -22.15,-12.96 -31.65,-34.63 -31.65,-59.8 0,-25.82 11.75,-46.53 32.79,-61.27 22.87,-16.02 51.23,-21 78.66,-21 21.15,0 41.95,3 62.21,9.05 20.46,6.11 39.8,15.16 57.82,26.57l13.83 8.76 -35.65 58.62 -14.48 -9.74c-13.02,-8.76 -27.06,-15.57 -42.01,-20.34 -13.65,-4.36 -27.91,-7.1 -42.28,-7.1 -10.87,0 -24.08,1.29 -33.68,6.84 -3.62,2.1 -7.55,4.85 -7.55,9.43 0,3.78 2.2,4.94 5.56,6.3 12.11,4.91 36.3,5.2 49.26,5.2 30.59,0 65.91,3.98 91.99,21.32 24.24,16.12 35.43,40.28 35.43,69.03 0,27.98 -12.83,50.52 -34.94,67.31 -24.18,18.37 -53.69,24.87 -83.58,24.87 -24.08,0 -47.81,-3.53 -70.96,-10.19 -22.84,-6.58 -44.59,-16.15 -64.64,-28.94l-13.46 -8.59z"/>
   </g>
   <path class="fil9" d="M11825.18 8837.49l17.44 -30.1c15.78,10.56 33.03,18.81 51.66,24.69 18.72,5.96 36.52,8.9 53.59,8.9 20.46,0 36.98,-4.13 49.55,-12.48 12.57,-8.35 18.81,-19 18.81,-32.02 0,-13.12 -5.78,-22.76 -17.25,-29.18 -11.47,-6.33 -29.55,-9.82 -54.32,-10.55 -41.84,-0.55 -70.56,-5.41 -86.16,-14.5 -15.6,-9.18 -23.4,-24.32 -23.4,-45.42 0,-19.73 8.53,-35.6 25.69,-47.62 17.16,-12.02 40.19,-17.99 69.09,-17.99 19.73,0 38.81,2.76 57.44,8.35 18.54,5.51 36.43,13.76 53.68,24.69l-18.08 29.73c-14.31,-9.63 -29.73,-17.07 -46.24,-22.39 -16.52,-5.23 -32.3,-7.89 -47.35,-7.89 -17.43,0 -31.47,3.03 -42.02,9.08 -10.55,6.15 -15.87,14.04 -15.87,23.86 0,10.19 5.32,17.43 15.96,21.75 10.65,4.31 29.18,6.42 55.52,6.42 36.61,0 64.14,6.15 82.76,18.54 18.63,12.39 27.99,30.74 27.99,55.15 0,21.65 -9.45,39.64 -28.35,54.04 -18.9,14.31 -43.4,21.47 -73.5,21.47 -22.3,0 -44.32,-3.21 -66.34,-9.54 -21.93,-6.33 -42.03,-15.32 -60.29,-26.98z"/>
   <g>
    <polygon class="fil0" points="11507.21,8907.34 11507.21,8542.28 11611.31,8542.28 11611.31,8907.34 "/>
   </g>
   <polygon class="fil9" points="11540.54,8874.01 11540.54,8575.61 11577.98,8575.61 11577.98,8874.01 "/>
   <g>
    <polygon class="fil0" points="11172.98,8807.65 11343.65,8807.65 11343.65,8907.34 11070.54,8907.34 11070.54,8611.1 11172.98,8611.1 "/>
   </g>
   <polygon class="fil9" points="11103.87,8874.01 11103.87,8644.43 11139.65,8644.43 11139.65,8840.98 11310.32,8840.98 11310.32,8874.01 "/>
   <g>
    <path class="fil0" d="M10721.23 8907.34c-45.54,0 -88.16,-12.59 -122.81,-42.95 -33.51,-29.37 -50.91,-67.47 -50.91,-112.06 0,-44.56 17.18,-82.8 50.83,-112.05 34.68,-30.14 77.4,-42.4 122.89,-42.4 45.57,0 88.56,12.12 123.39,42.27 33.78,29.24 50.88,67.55 50.88,112.19 0,44.69 -17.31,82.85 -50.94,112.26 -34.76,30.4 -77.62,42.74 -123.33,42.74zm0 -100.24c19.37,0 38.37,-4.02 53.39,-16.86 11.99,-10.26 17.33,-22.13 17.33,-37.9 0,-15.78 -5.54,-27.55 -17.52,-37.81 -15,-12.84 -33.82,-16.94 -53.2,-16.94 -19.25,0 -37.99,4.02 -52.88,16.81 -11.96,10.28 -17.3,22.19 -17.3,37.94 0,15.76 5.34,27.67 17.3,37.95 14.89,12.8 33.63,16.81 52.88,16.81z"/>
   </g>
   <path class="fil9" d="M10721.23 8874.01c-40.83,0 -74.51,-11.56 -100.84,-34.69 -26.33,-23.03 -39.55,-52.03 -39.55,-86.99 0,-35.05 13.12,-64.05 39.37,-86.89 26.33,-22.85 60.01,-34.23 101.03,-34.23 41.38,0 75.24,11.38 101.57,34.14 26.24,22.76 39.37,51.75 39.37,86.98 0,35.15 -13.22,64.14 -39.55,87.17 -26.33,23.03 -60.1,34.5 -101.39,34.5zm0 -33.58c30.65,0 55.7,-8.26 75.06,-24.87 19.36,-16.52 29,-37.62 29,-63.22 0,-25.42 -9.72,-46.43 -29.18,-63.13 -19.45,-16.61 -44.41,-24.96 -74.87,-24.96 -30.46,0 -55.33,8.26 -74.6,24.87 -19.27,16.52 -28.9,37.62 -28.9,63.22 0,25.6 9.63,46.7 28.9,63.22 19.27,16.61 44.14,24.87 74.6,24.87z"/>
   <g>
    <polygon class="fil0" points="10113.4,8576.94 10304,8576.94 10304,8404.61 10424.87,8404.61 10424.87,8907.34 10304,8907.34 10304,8693.76 10113.4,8693.76 10113.4,8907.34 9991.72,8907.34 9991.72,8404.61 10113.4,8404.61 "/>
   </g>
   <polygon class="fil9" points="10025.06,8874.01 10025.06,8437.94 10080.07,8437.94 10080.07,8610.27 10337.33,8610.27 10337.33,8437.94 10391.54,8437.94 10391.54,8874.01 10337.33,8874.01 10337.33,8660.43 10080.07,8660.43 10080.07,8874.01 "/>
  </g>
 </g>
</svg>
