<?xml version="1.0" encoding="UTF-8"?>
<!DOCTYPE svg PUBLIC "-//W3C//DTD SVG 1.1//EN" "http://www.w3.org/Graphics/SVG/1.1/DTD/svg11.dtd">
<!-- Creator: CorelDRAW 2018 (64-Bit) -->
<svg xmlns="http://www.w3.org/2000/svg" xml:space="preserve" width="20in" height="8.5in" version="1.1" style="shape-rendering:geometricPrecision; text-rendering:geometricPrecision; image-rendering:optimizeQuality; fill-rule:evenodd; clip-rule:evenodd"
viewBox="0 0 20000 8500"
 xmlns:xlink="http://www.w3.org/1999/xlink">
 <defs>
  <style type="text/css">
   <![CDATA[
    .fil6 {fill:#2B2A29}
    .fil3 {fill:#693C16}
    .fil0 {fill:#CB7F83}
    .fil4 {fill:#F30709}
    .fil7 {fill:#FEFEFE;fill-rule:nonzero}
    .fil8 {fill:#317C0F;fill-rule:nonzero}
    .fil2 {fill:url(#id0)}
    .fil5 {fill:url(#id1)}
    .fil1 {fill:url(#id2)}
   ]]>
  </style>
  <linearGradient id="id0" gradientUnits="userSpaceOnUse" x1="6015.26" y1="5253.52" x2="1919.54" y2="1505.91">
   <stop offset="0" style="stop-opacity:1; stop-color:#DDA1A5"/>
   <stop offset="1" style="stop-opacity:1; stop-color:#F8CED9"/>
  </linearGradient>
  <linearGradient id="id1" gradientUnits="userSpaceOnUse" x1="4054.11" y1="2560.23" x2="4020.69" y2="628.59">
   <stop offset="0" style="stop-opacity:1; stop-color:#2E7910"/>
   <stop offset="0.439216" style="stop-opacity:1; stop-color:#67B804"/>
   <stop offset="1" style="stop-opacity:1; stop-color:#8DD008"/>
  </linearGradient>
  <linearGradient id="id2" gradientUnits="userSpaceOnUse" x1="1855.47" y1="3566.08" x2="6440.15" y2="3026.03">
   <stop offset="0" style="stop-opacity:1; stop-color:#CB7F83"/>
   <stop offset="1" style="stop-opacity:1; stop-color:#F2C9CD"/>
  </linearGradient>
 </defs>
 <g id="Layer_x0020_1">
  <metadata id="CorelCorpID_0Corel-Layer"/>
  <g id="_1938287003856">
   <g>
    <polygon class="fil0" points="5696.88,1636.75 5557.33,1831.68 5557.33,5394.16 5696.88,5235.22 "/>
    <polygon class="fil0" points="1919.56,5366.06 1817.78,5523.68 1817.78,1702.14 1919.56,1505.91 "/>
    <polygon class="fil0" points="2052.08,1636.75 1948.97,1831.68 5557.33,1831.68 5696.88,1636.75 "/>
    <polygon class="fil0" points="5829.41,5366.06 5688.52,5523.68 1817.78,5523.68 1919.56,5366.06 "/>
   </g>
   <path class="fil1" d="M1919.56 1505.91l3909.85 0 0 3860.15 -3909.85 0 0 -3860.15zm132.53 130.84l3644.8 0 0 3598.47 -3644.8 0 0 -3598.47z"/>
   <path class="fil2" d="M3959.27 3427.04c-10.95,134.8 45.46,162.3 -27.31,237.8 -151.2,1.69 -91.37,-101.38 -113.56,-236.61l-198.33 -0.75c-10.93,-12.09 -24.63,-24.1 -27.56,-30.37 -8.11,-8.45 -8.11,7.19 -15.87,-31.3 -3.1,-133.67 154.84,-74.86 238.59,-90.41 9.56,-101.25 -26.77,-228.52 79.03,-231.22 107.17,-1.33 69.71,151.26 79.01,239.13 137.92,10.73 109.48,-11.31 226.41,81.02 -62.42,42.62 -141.75,83.41 -240.41,62.72zm1729.25 2096.65l-137.13 0c-1.37,2.05 -4.42,1.41 -8.91,1.46 -1.9,4.36 -10.24,3.98 -10.57,4.77 -0.13,0.32 14.44,8.81 14.35,7.91 -0.09,-1.02 2.54,0.71 3.81,0.54 30.65,55.74 47.15,55.19 121.24,34.15 32.93,58.8 27.3,32.48 68.88,85.96 -12.4,70.11 -25.43,32.89 -18.74,111.32 43.11,27.78 21.24,14.86 52.35,20.98 13.83,2.7 5.47,-1.6 30.64,5.37 236.67,65.62 108.17,61.35 276.35,121.07 71.85,25.51 32.55,43.07 115.35,60.22 -23.91,-118.85 -207.1,-235.64 -293.83,-311.6 -78.5,-68.77 -106.81,-203.63 -213.79,-142.17zm-246.59 538.52c49.35,45.93 81.39,85.3 127.34,133.8 43.6,46 72.66,96.1 164.57,89.62 -5.33,-20.02 -3.33,-11.25 -10.76,-23.39 -39.15,-64.02 -94.62,-100.48 -113.26,-125.11 -11.55,-15.27 -34.06,-121.91 -167.9,-74.93zm-575.98 -70.07c-126.91,40.26 26.6,-9.73 -35.61,35.22 3.74,3.14 12.74,13.66 15.67,16.27 29.55,26.26 1.69,19.41 42.21,6.93 11.39,-73.6 -29.19,-122.55 38.3,-103.32 85.22,21.74 105.65,-7.44 151.37,57.78l62.07 -28.37c1.39,-0.54 6.07,-2.37 7.38,-2.87 15.87,-6.07 4.39,2.87 24.65,-10.37 -37.67,-55.1 -221.49,-300.6 -295.96,-232.28 -17.37,24.14 -17.81,-36.03 -14.57,41.8 1.46,35.71 28.4,83.56 65.86,105.72l-44.46 21.13c-30.41,9.32 10.2,-11.44 -22.84,2.63 3.12,47.15 16.53,53.48 5.95,89.72zm411.89 -434.55c9.49,56.85 11.08,24.22 -18.56,33.53 -70.7,34.17 -91.26,-57.29 -97.36,-67.44l-518.7 0c-17.75,0 -18.88,0 -31.35,0 -29.06,0 -39.69,0 -58.31,0 23.52,28.67 80.64,63.17 96.8,75.7l21 -0.19 18.56 10.57c27.97,-3.42 22.99,-10.5 19.8,16.06 21.13,0.43 17.52,-5 12.4,15.06l40.63 9.43c-9.09,-29.78 -16.61,-26.04 12.91,-19.5 -6.85,-28.29 -9.35,-18.77 22.13,-13.11l20.7 -9.69c45.05,-8.49 73.52,-17.62 128.54,-16.7 17.3,0.28 50.81,2.67 67.87,8.73 49.07,17.51 33.48,8.25 50.34,39.15 23.84,16.27 5,-19.52 27.58,31.56 9.13,20.68 9.82,39.46 12.72,65.56 2.39,3.63 4.87,8.66 6.09,11.5 47.28,110.23 82.59,129.71 188.45,194.31l38.79 25.13c-10.82,-71.93 -34.21,-99.19 32.65,-166.04 -18.31,-68.06 -13.37,-92.14 -29.45,-180.94 85.53,-42.28 -4.55,-6.97 62.67,-50.4 -44.84,-13.98 -4.02,3.51 -36.8,-16.78l-21.06 -21.72c4.23,-7.72 21.34,-7.72 -40.67,-7.72l-14.41 0 -13.94 33.91zm-2631.69 -4400.28l48.89 -6.91c0,-24.33 -6.44,-18.67 16.57,-19.59 20.59,-19.2 -37.59,-14.26 106.79,-33.96 144.68,-19.74 441.26,64.64 448.2,63.74 -132.58,2.26 -145.92,-145.68 -224.22,-176.5 -47.13,-18.54 -65.82,-19.27 -109.16,-48.88 -62.83,-42.89 -27.46,-41.7 -128.04,-47.84l-262.61 -68.08c-114.87,-34.54 -124.64,-33.21 -193.61,53.69 6.5,23.31 -8.26,18.73 36.24,49.8 -6.05,40.95 32.12,81.13 54.27,100.14 31.73,-43.58 -29.25,-78.24 34.53,-88.12 37.74,88.63 8.51,210.97 88.23,220.41l83.91 2.12zm948.78 153.72l25.3 23.2c24.65,62.8 100.22,107.43 133.28,173.76 263.57,0.04 345.06,0.62 462.84,0.62 4.92,-31.58 10.84,-63.63 19.18,-95.75l-119.87 -26.65c-24.21,-15.07 -52.67,-47.28 -80.14,-62.85 -101.91,-57.78 -482.66,-147.12 -578.14,-109.39l137.54 97.06zm87.67 545.57c21.83,-5.02 14.88,-7.87 11.12,18.8 21.04,-2.61 15.63,-7.12 12.66,17.2 19.91,-1.76 15.05,-6.59 13.24,15.91 21.36,-2.72 15.76,-7.25 13.02,17.51 20.01,-0.68 14.5,-5.33 12,18.28l10.88 17.02c23.18,-2.97 17.71,-8.06 13.58,18.11l11.54 17.02c21.73,-1.84 15.14,-6.74 15.97,19.2 80.4,123.25 140.21,239.62 184.09,440.9l-0.15 25.87 0.33 -9.64c3.04,-62.23 -2.16,-13.86 15.97,-33.1l-3.76 -9.47 76.93 -255.19c9.19,-21.04 8.9,-16.44 16.66,-42.3 13.86,-46.27 3.42,1.13 8.64,-41.89 -5.02,-32.56 -14.86,-30.83 9.44,-25.19l29.51 -57.37 15.93 -28.33 38.1 -52.63 7.17 -20.93c-5.58,-33.08 -16.1,-33.06 8.94,-24.16 7.48,-46.08 -0.28,-13.19 20.65,-23.76 -6.01,-46.87 36.76,-22.2 -52.63,-33.81 -19.2,-2.5 -51.19,1.13 -71.94,1.86 -51.42,1.84 -103.09,0.34 -154.73,-0.09 -38.68,-0.32 -266.11,-23.33 -263.16,30.19zm1005.35 663.29c22.52,-19.18 59.45,-28.23 115.73,-23.56 263.83,21.92 347.72,392.43 398.15,497.5 6.05,-99.88 -26.81,-235.19 -5.84,-310.85 54.4,-135.01 402.33,-84.25 253.14,487.97 -325.58,1248.87 -1910.24,1793.99 -2949.48,852.17 -255.25,-231.3 -625.22,-788.53 -561.8,-1323.33 -28.53,85.89 73.47,338.07 123.7,377.05 185.01,143.63 715.72,-313.54 1097.28,-477.7 157.61,-67.8 782.11,-285.4 712.9,93.57 -66.33,363.35 -404.13,285.38 -464.42,617.38 -55.87,307.7 268.06,540.5 569.41,491.79 279.22,-45.14 501.35,-358.24 326.65,-643.93 -83.63,-136.75 -222.83,-167.5 -266.44,-274.15 -128.13,-313.26 376.99,-581.41 764.58,215.56 -0.08,-8.11 -0.7,-16.61 -1.75,-25.45m-426.47 -1247.91c-194.31,207.89 -182.4,286.36 -271.72,429.52l-91.52 305.85c-36.97,-13.75 -25.23,-5.62 -43.41,-37.83l-57.46 -182.33c-32.11,-86.2 -65.39,-142.46 -99.22,-217.79l-31.61 -42.3c-33.87,37.17 -2.69,-7.98 -16.17,31.59l-14.63 91.76c-37.96,-54.81 -16.27,31.88 -135.1,-90.47 -100.84,2.59 -89.79,52.35 -148.29,35.71 -62.05,-17.68 -11.12,-39.07 -169.25,-38.4 -56.09,0.24 -195.46,-37.19 -302.76,-48.69 -47.88,20.81 -85.3,52.09 -107.32,46.12 -76.45,-20.7 -90.92,35.3 -162.79,-36.18 -161.85,3.51 -95,-25.62 -174.93,-34.11 -158.77,-16.85 -162.88,44.31 -270.74,-110.62l-119.45 5.46c48.3,46.34 42.49,109.35 93.1,161.31 99.52,102.15 128.3,84.49 132.69,116 8.13,58.12 -66.65,59.36 -104.57,80.72 -191.45,107.83 -41.8,-2.8 -216.98,-2.37 -56.24,-2.39 -69.19,4.45 -109.14,-13.94 -373.65,-9.79 -179.98,-94.9 -883.02,-40.01 -157.83,12.32 -272.17,163.3 -374.29,270.71 -43.49,45.74 -36.72,34.88 -39.13,117.12 -8.04,275.27 32.89,141.86 49.27,287.72 24.31,216.16 147.87,285.04 137.02,349.74 -27.01,50.55 -35.9,25.51 -48.82,95.56 -34.83,188.96 95.74,297.48 216.93,407.16 36.87,33.38 51.06,27.2 91.46,67.93 54.17,54.61 95.99,101.18 160.37,157.87 53.7,47.28 35.65,17.75 92.83,51.47 74.89,44.15 14.78,62.12 138.05,103.31 188.81,63.08 184.73,64.21 379.62,174.61 147.2,83.41 179.19,42.96 202.22,113.7l168.95 50.02c66.8,27.5 -6.56,-10.35 32.76,19.8 31.41,24.08 -21.32,16.29 53.74,39.09 44.05,13.39 102.66,18.84 153.78,34.26 98.41,29.7 23.87,25.32 142.61,23.09 102.98,136.75 19.52,53.35 173.67,89.11 69.93,16.21 26.19,19.18 83.35,48.54 53.7,27.59 57.39,6.46 114.81,28.1 20.38,7.67 54.4,31.24 86.47,41.14 41.38,12.75 78.13,9.46 120.77,25 18.92,6.88 52.05,29.55 82.11,43.45 33.53,15.48 69.04,30.56 100.26,41.01 76.06,25.47 143.89,32.16 214.17,54.53 79.09,25.19 130.82,55.47 191.34,77.04 120.77,43.06 222.77,98.04 335.37,163.17l31.74 18.48c2.39,1.41 7.37,3.98 10.69,6.5l1386.24 0.99 0 -80.68c-141.96,-76.23 -76.13,-17.51 -136.62,-94.77 -85.85,-109.63 -78.44,-40.14 -213.24,-104.29 -76.72,-36.5 -259.98,-118.63 -219.8,-242.19 13.9,-32.99 226.69,-25.51 389.11,61.63 102.17,54.81 191.8,70.97 248.56,87.71l-470.17 -254.52c415.11,175.75 221.4,15.05 366.15,1.88 96.16,-8.75 272.49,83.48 317.72,75.55 -106.81,-102.06 -49.69,-103 -57.54,-143.72 -4.42,-22.99 102.11,76.42 130.55,54.44 -8,-100.2 -30.26,-105.1 28.7,-159.05 -2.74,-3.17 -6.89,-12.26 -8.02,-9.67 -1.13,2.56 -6.07,-7.67 -7.59,-9.88 -62.61,-92.03 -3.12,-38.21 -60.86,-85.34 -52.35,-42.72 -74.16,-11.7 -85.04,-96.81 124.96,-26.56 124.24,5.11 199.46,69.24 -29,-44.13 43.09,-46.55 124.17,10.82 94.09,66.59 291.84,93.85 381.56,192.62l-146.86 -160.27 -2.59 -52.15 169.83 70.12 -169.14 -124.28 72.43 13.21 156.54 51.79c-90,-36.82 4.73,-127.85 -78.58,-172.78 -0.11,-104.37 -69.48,-126.87 -58.89,-291.46 11.37,-9.75 80.63,60.13 85.66,56.3 13.71,-10.43 -27.24,-41.65 17.11,-41.72 7.23,-78.84 -11.23,-93.31 57.52,-108.24 77.88,-16.91 92.76,25.85 146,29.17 98.98,6.2 -2.65,-91.16 116.07,-90.84 44.88,0.11 37.59,62.63 74.93,64.15 21.75,0.88 105.94,18.41 127.36,13.43 74.43,-17.28 -76.08,-118.57 -62.99,-170.25 17.53,-69.11 276.91,120.31 291.04,96.72 6.12,-10.2 -207.35,-203.82 -217.89,-237.5l107 -74.65c-31.86,-60.09 -302.28,-146.18 -359.5,-181.5 -29.41,-18.16 -15.31,-101.53 -45.42,-124.84 -70.72,-54.74 -132.94,21.41 -150.02,-81.98 -25.41,-153.92 -74.14,-154.3 -136.87,-209.36l-16.36 -16.04c-109.65,-114.31 -151.31,-77.96 -278.13,-198.56l-15.89 -15.46c-2.35,-2.09 -5.75,-5.35 -8.15,-7.35l-117.89 -76.02c-21.79,-9.46 -29.3,-7.36 -49.2,-15.7 -46.31,-19.41 -65.37,-57.5 -94.13,-91.69 -22,-26.17 -14.03,-12.46 -31.18,-33.83 -39.19,-48.84 -18.19,-45.03 -49.24,-78.41 -58.87,-63.32 -239.17,-162.58 -304.11,-220.42 -34,-30.3 -27.26,-30.41 -69.82,-56.96 -288.46,-179.73 9.19,-3.81 -159.91,-139.14 -86.54,0 -53.99,0 -274.56,0 -40.17,0 -111.77,0 -635.32,-5.69z"/>
   <path class="fil3" d="M4808.79 3092.25c-387.59,-796.96 -892.71,-528.81 -764.58,-215.56 43.62,106.64 182.81,137.39 266.44,274.15 174.7,285.68 -47.43,598.78 -326.65,643.92 -301.35,48.71 -625.27,-184.09 -569.41,-491.78 60.28,-332 398.09,-254.03 464.41,-617.38 69.2,-378.96 -555.3,-161.36 -712.9,-93.57 -381.56,164.16 -912.26,621.33 -1097.28,477.7 -50.23,-38.98 -152.23,-291.17 -123.7,-377.05 -63.42,534.81 306.55,1092.04 561.8,1323.33 1039.23,941.81 2623.9,396.7 2949.48,-852.17 149.19,-572.22 -198.74,-622.98 -253.15,-487.97 -20.96,75.67 11.89,210.97 5.84,310.85 -50.42,-105.06 -134.31,-475.57 -398.15,-497.5 -324.88,-26.98 -4.09,403.18 -2.18,603.03z"/>
   <path class="fil4" d="M3889.3 3044.11l0 0c39.86,0 72.47,32.62 72.47,72.47l0 166.65 166.65 0c39.85,0 72.47,32.61 72.47,72.47l0 0c0,39.86 -32.62,72.47 -72.47,72.47l-166.65 0 0 166.66c0,39.86 -32.61,72.47 -72.47,72.47l0 0c-39.86,0 -72.47,-32.61 -72.47,-72.47l0 -166.66 -166.66 0c-39.86,0 -72.47,-32.61 -72.47,-72.47l0 0c0,-39.86 32.61,-72.47 72.47,-72.47l166.66 0 0 -166.65c0,-39.85 32.61,-72.47 72.47,-72.47z"/>
   <path class="fil5" d="M2189.78 1361.17c438.19,176.15 801.06,969.37 1408.37,569.56 209.73,229.4 341.11,469.24 385.19,720.68 56.95,-321.02 206.57,-581.24 418.19,-797.36 731.59,173.36 837.43,-564.45 1393.67,-984.7 -558.89,-237.8 -1641.81,-46.94 -1592.52,794.2 200,-172.82 435.06,-394.52 679.24,-501.16 -425.08,308.02 -780.06,669.3 -884.44,1220.6 -118.1,-543.16 -493.35,-766.18 -894.65,-956.77 314.02,17.75 552.54,198.88 714.65,332.59 -15.29,-534.5 -797.36,-987.54 -1627.69,-397.64z"/>
  </g>
  <g id="_1938286989840">
   <g>
    <g>
     <polygon class="fil6" points="16869.98,4541.63 16869.98,4630.21 17187.76,4630.21 17187.76,4785.15 16869.98,4785.15 16869.98,4915.31 17380.76,4915.31 17380.76,5070.25 16707.6,5070.25 16707.6,4385.19 17354.06,4385.19 17354.06,4541.63 "/>
    </g>
    <polygon class="fil7" points="16740.53,5037.32 16740.53,4418.11 17321.13,4418.11 17321.13,4508.7 16837.05,4508.7 16837.05,4663.14 17154.83,4663.14 17154.83,4752.22 16837.05,4752.22 16837.05,4948.24 17347.83,4948.24 17347.83,5037.32 "/>
    <g>
     <path class="fil6" d="M15903.88 4804.33l0 270.27 -171.04 0 0 -692.26 462.93 0c62.1,0 124.47,13.55 172.86,54.61 47.04,39.92 66.84,94.46 66.84,155.42 0,52.43 -17.19,99.34 -51.87,138.73 -22.73,25.8 -49.74,44.63 -80.18,56.94l181.89 286.56 -193.24 0 -175.67 -270.27 -212.51 0zm0 -165.11l291.88 0c16.54,0 39.31,-2.11 52.64,-13.18 10.42,-8.67 13,-20.84 13,-33.96 0,-12.56 -2.5,-24.69 -12.64,-32.89 -13.6,-11.01 -36.26,-13.21 -53,-13.21l-291.88 0 0 93.24z"/>
    </g>
    <path class="fil7" d="M15866.6 4767.05l0 270.27 -96.48 0 0 -617.7 425.64 0c63.32,0 112.86,15.35 148.74,45.76 35.87,30.47 53.67,72.8 53.67,126.99 0,43.79 -14.08,81.88 -42.56,114.09 -28.2,32.16 -65.07,51.94 -110.6,59.14l172.46 271.72 -105.19 0 -175.67 -270.27 -270.02 0zm0 -90.54l329.16 0c33.38,0 58.9,-7.2 76.47,-21.8 17.56,-14.59 26.46,-35.36 26.46,-62.62 0,-26.93 -8.9,-47.74 -26.46,-61.87 -17.57,-14.32 -43.09,-21.52 -76.47,-21.52l-329.16 0 0 167.81z"/>
    <g>
     <path class="fil6" d="M15304.63 4913.33l-285.96 0 -79.94 157.41 -177.46 0 349.05 -686.03 101.79 0 351.75 686.03 -178.81 0 -80.41 -157.41zm-209.72 -148.46l132.98 0 -66.09 -130.38 -66.89 130.38z"/>
    </g>
    <path class="fil7" d="M14815.76 5037.32l315.04 -619.2 60.89 0 317.49 619.2 -103.69 0 -80.42 -157.41 -326.91 0 -79.94 157.41 -102.46 0zm224.45 -239.04l242.07 0 -120.3 -237.35 -121.76 237.35z"/>
    <g>
     <path class="fil6" d="M14512.52 4731.34l135.1 100.04 -13.55 25.72c-38.42,72.91 -92.63,132.32 -163.78,174.04 -71.98,42.19 -151.46,60.87 -234.67,60.87 -124.03,0 -233.51,-40.02 -321.1,-128.61 -88,-89.01 -126.83,-199.98 -126.83,-324.5 0,-124.71 38.82,-236.02 127.16,-325.05 87.59,-88.27 196.59,-128.53 320.48,-128.53 76.73,0 150.45,16.3 218.38,52.48 66.85,35.59 120.47,86.39 161.12,150.28l17.24 27.12 -141.2 100.61 -18.01 -34.43c-22.09,-42.25 -53.98,-75.06 -95.38,-98.67 -43.77,-24.95 -91.55,-36.14 -141.86,-36.14 -78.06,0 -144.63,25.47 -198.74,82.09 -55.84,58.44 -78.99,129.95 -78.99,210.24 0,80.24 22.98,151.87 78.94,210.18 54.19,56.46 120.84,81.63 198.79,81.63 53.61,0 103.78,-12.46 149.15,-41.25 47.71,-30.27 82.89,-73.98 109.26,-123.45l18.48 -34.67z"/>
    </g>
    <path class="fil7" d="M14523.93 4781.93l80.19 59.38c-36.64,69.54 -87.11,123.26 -150.95,160.6 -63.62,37.38 -136.12,56.22 -217.54,56.22 -119.78,0 -218.8,-39.6 -297.01,-118.56 -77.92,-78.96 -117.04,-179.15 -117.04,-300.68 0,-121.76 39.13,-222.24 117.33,-301.2 78.44,-78.91 177.19,-118.52 296.44,-118.52 74.02,0 141.59,16.06 202.46,48.5 60.87,32.39 110.37,78.68 148.46,138.57l-83.39 59.42c-25,-47.79 -61.35,-85.41 -108.62,-112.39 -47.28,-26.93 -100.25,-40.59 -158.63,-40.59 -89.84,0 -164.32,30.94 -223.22,92.56 -58.91,61.63 -88.38,139.6 -88.38,233.64 0,94.26 29.48,172.23 88.38,233.63 58.9,61.35 133.39,92.05 223.22,92.05 62.86,0 118.51,-15.58 167.3,-46.52 48.73,-30.94 89.08,-76.23 121,-136.12z"/>
    <g>
     <path class="fil6" d="M13406.63 4902.47c-37.8,59.57 -88.11,105.94 -150.95,138 -65.26,33.28 -136.67,47.17 -209.59,47.17 -107.43,0 -207.54,-28.57 -289.19,-100 -77.51,-67.81 -116.01,-154.8 -116.01,-257.68 0,-103.15 38.5,-190.08 115.92,-258.36 81.52,-71.9 181.61,-100.79 289.28,-100.79 68.36,0 135.02,12.3 197.33,40.92 58.33,26.79 107.48,65.48 145.46,117.24l18.82 25.68 -128.09 88.91 -17.83 -24.6c-23.04,-31.77 -53.08,-55.13 -88.76,-71.4 -39.98,-18.22 -82.93,-25.64 -126.69,-25.64 -65.73,0 -126.52,16.62 -176.65,60.19 -44.83,38.96 -67.26,86.93 -67.26,146.38 0,59.5 22.52,107.39 67.48,146.28 50.18,43.39 110.7,60.24 176.43,60.24 45.51,0 90.83,-7.98 131.57,-28.95 40.98,-21.11 73.48,-53.88 99.65,-91.4l17.65 -25.31 127.42 87.91 -15.98 25.2z"/>
    </g>
    <path class="fil7" d="M13380.44 4885.85c-35.18,55.46 -81.46,97.74 -138.86,126.98 -57.17,29.19 -122.51,43.78 -195.5,43.78 -108.67,0 -198.22,-30.7 -268.76,-92.33 -70.29,-61.59 -105.42,-139.79 -105.42,-234.34 0,-94.78 35.13,-172.99 105.42,-235.1 70.54,-62.1 160.09,-93.04 268.76,-93.04 67.8,0 129.15,12.62 184.39,38.09 55.18,25.24 99.44,61.11 133.39,107.41l-76.98 53.43c-25.47,-35.12 -59.14,-62.33 -101,-81.41 -41.81,-19.07 -88.33,-28.43 -139.56,-28.43 -79.43,0 -145.02,22.5 -197,67.8 -51.94,45.02 -77.93,101.7 -77.93,169.79 0,68.03 25.99,124.72 78.2,169.73 52.22,45.3 117.76,67.8 196.72,67.8 54.94,0 103.69,-10.87 145.77,-32.4 42.05,-21.8 78.96,-55.46 110.89,-101.22l77.46 53.44z"/>
    <g>
     <polygon class="fil6" points="12297.2,5070.13 12297.2,4383.84 12460.8,4383.84 12460.8,5070.13 "/>
    </g>
    <polygon class="fil7" points="12330.01,5037.32 12330.01,4416.65 12427.99,4416.65 12427.99,5037.32 "/>
    <g>
     <polygon class="fil6" points="11674.36,4537.19 11413.04,4537.19 11413.04,4385.2 12098.02,4385.2 12098.02,4537.19 11836.7,4537.19 11836.7,5070.23 11674.36,5070.23 "/>
    </g>
    <polygon class="fil7" points="11707.27,5037.32 11707.27,4504.28 11445.95,4504.28 11445.95,4418.11 12065.11,4418.11 12065.11,4504.28 11803.79,4504.28 11803.79,5037.32 "/>
    <g>
     <path class="fil6" d="M10729.83 4968.29l78.45 -135.52 27.51 18.41c40.64,27.2 84.9,48.01 131.5,62.78 43.72,13.87 89.14,22.57 135.12,22.57 39.58,0 82.82,-6.16 116.48,-28.5 22.2,-14.73 36.89,-33.15 36.89,-60.5 0,-24.16 -9.48,-39.91 -30.56,-51.62 -35.09,-19.49 -92.81,-23.77 -132.07,-24.54 -71.3,-1.38 -184.55,-6.56 -247.43,-43.37 -55.41,-32.44 -78.49,-86.31 -78.49,-149.22 0,-65.1 29.51,-116.71 82.54,-153.85 59.25,-41.5 133.15,-54.11 204.15,-54.11 55.7,0 110.43,7.86 163.78,23.81 53.96,16.11 104.96,39.96 152.5,70.09l25.73 16.3 -81.49 133.96 -26.95 -18.17c-36.17,-24.37 -75.26,-43.3 -116.82,-56.57 -38.2,-12.2 -78.07,-19.81 -118.26,-19.81 -32.05,0 -69.54,4.02 -97.81,20.37 -14.63,8.46 -27.3,19.5 -27.3,37.46 0,16.41 8.99,23.97 23.66,29.92 34.93,14.15 100.74,15.06 138.09,15.06 79.44,0 172.61,10.07 240.4,55.15 61.49,40.87 89.31,101.71 89.31,174.56 0,71.11 -32.53,127.8 -88.71,170.47 -62.73,47.65 -139.49,64.23 -216.99,64.23 -63.64,0 -126.35,-9.35 -187.5,-26.97 -60.31,-17.37 -117.75,-42.59 -170.69,-76.4l-25.03 -15.98z"/>
    </g>
    <path class="fil7" d="M10771.56 4958.13l46.99 -81.18c42.56,28.48 89.13,50.75 139.37,66.57 50.48,16.11 98.46,24.02 144.5,24.02 55.19,0 99.73,-11.16 133.63,-33.67 33.91,-22.5 50.76,-51.23 50.76,-86.35 0,-35.41 -15.59,-61.4 -46.52,-78.73 -30.94,-17.04 -79.72,-26.46 -146.53,-28.44 -112.86,-1.51 -190.32,-14.59 -232.36,-39.13 -42.1,-24.72 -63.15,-65.55 -63.15,-122.46 0,-53.21 23.02,-96.06 69.31,-128.44 46.28,-32.44 108.38,-48.5 186.36,-48.5 53.2,0 104.66,7.39 154.9,22.51 50.01,14.83 98.27,37.1 144.78,66.58l-48.78 80.18c-38.57,-25.99 -80.18,-46.05 -124.72,-60.41 -44.54,-14.08 -87.11,-21.28 -127.69,-21.28 -46.99,0 -84.85,8.19 -113.34,24.53 -28.44,16.57 -42.8,37.85 -42.8,64.31 0,27.5 14.36,47.04 43.04,58.67 28.72,11.63 78.73,17.33 149.73,17.33 98.74,0 172.99,16.58 223.23,49.96 50.24,33.43 75.47,82.91 75.47,148.73 0,58.44 -25.47,106.93 -76.46,145.77 -51,38.61 -117.06,57.92 -198.23,57.92 -60.13,0 -119.54,-8.67 -178.92,-25.76 -59.13,-17.04 -113.33,-41.29 -162.58,-72.74z"/>
    <g>
     <polygon class="fil6" points="10396.42,5070.56 10396.42,4383.42 10560.87,4383.42 10560.87,5070.56 "/>
    </g>
    <polygon class="fil7" points="10429.66,5037.32 10429.66,4416.65 10527.64,4416.65 10527.64,5037.32 "/>
    <g>
     <polygon class="fil6" points="9727.87,4910.98 10188.17,4910.98 10188.17,5074.58 9556.83,5074.58 9556.83,4380.85 9727.87,4380.85 "/>
    </g>
    <polygon class="fil7" points="9594.09,5037.32 9594.09,4418.11 9690.61,4418.11 9690.61,4948.24 10150.91,4948.24 10150.91,5037.32 "/>
    <g>
     <path class="fil6" d="M8973.02 5086.76c-108.17,0 -209.41,-28.8 -291.82,-101.02 -77.42,-67.85 -116.92,-154.25 -116.92,-257.24 0,-102.89 38.82,-189.57 116.53,-257.13 82.52,-71.72 184.13,-99.68 292.21,-99.68 108.36,0 210.76,27.6 293.71,99.4 78,67.51 116.58,154.37 116.58,257.41 0,103.28 -39.28,189.8 -116.98,257.78 -82.72,72.34 -184.69,100.49 -293.31,100.49zm0 -150.87c66.94,0 131.19,-15.6 182.87,-59.81 45.62,-39.02 67.66,-87.59 67.66,-147.59 0,-60.07 -22.57,-108.36 -68.19,-147.41 -51.59,-44.16 -115.44,-60.04 -182.34,-60.04 -66.64,0 -130.23,15.65 -181.55,59.76 -45.48,39.09 -67.43,87.75 -67.43,147.69 0,59.91 21.97,108.56 67.43,147.64 51.31,44.11 114.9,59.76 181.55,59.76z"/>
    </g>
    <path class="fil7" d="M8973.02 5056.62c-110.08,0 -200.91,-31.16 -271.96,-93.55 -71,-62.11 -106.65,-140.31 -106.65,-234.57 0,-94.55 35.35,-172.75 106.17,-234.39 71,-61.63 161.83,-92.28 272.43,-92.28 111.64,0 202.94,30.65 273.99,92.05 70.76,61.35 106.17,139.56 106.17,234.63 0,94.78 -35.64,172.94 -106.69,235.09 -71,62.1 -162.06,93.04 -273.46,93.04zm0 -90.59c82.69,0 150.25,-22.27 202.46,-67.04 52.21,-44.54 78.2,-101.46 78.2,-170.49 0,-68.56 -26.22,-125.25 -78.73,-170.3 -52.45,-44.78 -119.78,-67.28 -201.94,-67.28 -82.17,0 -149.21,22.26 -201.19,67.05 -51.94,44.54 -77.92,101.46 -77.92,170.54 0,69.03 25.98,125.95 77.92,170.49 51.98,44.77 119.03,67.04 201.19,67.04z"/>
    <g>
     <polygon class="fil6" points="7801.21,4517.27 8201.42,4517.27 8201.42,4201 8372.87,4201 8372.87,5073.3 8201.42,5073.3 8201.42,4681.28 7801.21,4681.28 7801.21,5073.3 7628.26,5073.3 7628.26,4201 7801.21,4201 "/>
    </g>
    <polygon class="fil7" points="7664.23,5037.32 7664.23,4236.98 7765.23,4236.98 7765.23,4553.25 8237.4,4553.25 8237.4,4236.98 8336.89,4236.98 8336.89,5037.32 8237.4,5037.32 8237.4,4645.3 7765.23,4645.3 7765.23,5037.32 "/>
   </g>
   <path class="fil8" d="M7949.68 3642.23c-108.76,0 -196.48,-11.35 -263.06,-34.09 -66.58,-22.74 -117.71,-45.48 -153.45,-68.22l0 85.27 -284.95 0 0 -1295.81c0,-25.99 -8.52,-44.26 -25.57,-54.81 -17.05,-10.55 -39.41,-15.82 -67,-15.82l0 -34.09c16.24,-11.39 33.29,-21.14 51.13,-29.24 16.24,-8.15 35.36,-15.02 57.26,-20.72 21.94,-5.7 45.86,-8.52 71.85,-8.52 51.98,0 91.77,8.52 119.36,25.57 27.59,17.05 47.89,39.41 60.88,67 40.59,-22.74 92.14,-44.26 154.67,-64.56 62.53,-20.29 134.38,-30.46 215.56,-30.46 121.81,0 232.22,18.27 331.28,54.8 99.07,36.54 183.49,86.5 253.31,149.82 69.83,63.33 123.83,138.43 161.97,225.3 38.14,86.87 57.26,181.46 57.26,283.78 0,115.26 -19.92,220.02 -59.7,314.19 -39.78,94.17 -93.74,174.54 -161.97,241.12 -68.18,66.58 -146.95,118.13 -236.27,154.67 -89.32,36.54 -183.49,54.81 -282.56,54.81zm-416.51 -1281.17l0 1069.28c37.39,14.6 87.3,29.62 149.82,45.06 62.53,15.4 129.48,23.12 200.96,23.12 71.43,0 136.78,-13.42 196.06,-40.21 59.28,-26.79 110.41,-65.35 153.45,-114.89 43.03,-49.48 76.32,-109.57 99.86,-180.61 23.54,-70.63 35.31,-149.82 35.31,-237.92 0,-103.92 -16.62,-196.06 -49.91,-275.63 -33.29,-79.95 -76.75,-146.53 -130.33,-200.11 -53.58,-53.63 -113.24,-94.59 -179.01,-122.23 -65.78,-27.59 -131.13,-41.39 -196.11,-41.39 -58.43,0 -111.22,4.47 -158.3,13.37 -47.08,8.94 -88.52,19.92 -124.21,32.91 1.6,6.5 2.4,16.24 2.4,29.24zm1624.65 1264.12l-284.95 0 0 -703.91c0,-42.24 -9.75,-69.45 -29.24,-81.6 -19.49,-12.19 -40.59,-18.27 -63.33,-18.27l-2.45 -31.69c17.89,-13 36.54,-24.34 56.03,-34.09 17.89,-8.1 37.34,-15.82 58.48,-23.12 21.09,-7.34 43.04,-10.97 65.73,-10.97 47.13,0 88.52,11.77 124.26,35.31 35.69,23.54 59.28,66.15 70.63,127.88 51.98,-47.08 99.07,-81.59 141.25,-103.54 42.24,-21.9 86.07,-32.87 131.56,-32.87 42.24,0 75.9,9.32 101.09,28.02 25.14,18.65 39.36,44.26 42.61,76.7 3.25,32.49 -4.89,62.95 -24.34,91.34 -19.49,28.44 -53.58,42.61 -102.31,42.61 -30.84,0 -55.23,-4.85 -73.07,-14.59 -17.84,-9.75 -30.84,-21.09 -38.98,-34.09 -11.35,-14.64 -18.65,-31.69 -21.89,-51.13 -9.75,8.1 -22.74,17.05 -38.99,26.79 -12.99,9.7 -29.24,21.52 -48.73,35.31 -19.44,13.8 -40.59,31.26 -63.33,52.36l0 623.54zm450.65 -282.55c48.73,0 87.29,15.44 115.69,46.28 28.44,30.84 42.66,65.78 42.66,104.76 0,35.69 -13.42,69.4 -40.21,101.04 -26.79,31.69 -68.6,47.51 -125.43,47.51 -51.98,0 -91.34,-15.02 -118.13,-45.06 -26.79,-30.04 -40.21,-64.55 -40.21,-103.49 0,-16.24 3.25,-33.29 9.75,-51.18 6.5,-17.85 16.67,-34.09 30.46,-48.69 13.8,-14.65 31.26,-26.79 52.36,-36.54 21.09,-9.74 45.48,-14.64 73.07,-14.64zm2316.31 -1156.96c0,37.34 -11.35,71.85 -34.09,103.54 -22.74,31.64 -60.88,47.46 -114.46,47.46l-328.84 0 0 1288.51 -358.03 0 0 -1288.51 -348.33 0c-16.24,0 -29.24,1.65 -38.99,4.89 -9.74,3.25 -17.84,6.5 -24.34,9.75 -6.5,4.85 -11.35,8.9 -14.59,12.15l-24.39 -24.34c0,-37.33 11.39,-71.05 34.14,-101.09 22.69,-30.04 60.08,-45.06 112.01,-45.06l1035.2 0c30.84,0 52.78,-4.05 65.78,-12.15 6.5,-4.9 11.35,-9.75 14.6,-14.65l24.34 19.5zm555.36 1242.22c0,25.99 5.28,53.16 15.82,81.6 10.54,28.39 29.66,47.51 57.25,57.21 13,3.25 22.74,4.89 29.24,4.89l2.4 31.64c-8.1,9.75 -19.44,18.27 -34.09,25.61 -14.59,7.3 -29.61,13.37 -45.06,18.27 -15.44,4.85 -31.26,8.52 -47.51,10.93 -16.24,2.45 -30.04,3.67 -41.39,3.67 -38.99,0 -75.9,-8.1 -110.84,-24.34 -34.89,-16.24 -63.7,-38.19 -86.44,-65.78 -27.64,27.59 -61.3,51.13 -101.09,70.63 -39.79,19.49 -86.5,29.24 -140.07,29.24 -107.17,0 -189.14,-21.09 -245.97,-63.33 -56.88,-42.24 -85.27,-103.11 -85.27,-182.69 0,-69.82 19.49,-125.85 58.43,-168.04 38.98,-42.23 85.69,-75.52 140.07,-99.87 54.38,-24.39 112.06,-41.01 172.94,-49.96 60.88,-8.94 113.24,-14.22 157.12,-15.82l0 -90.12c0,-19.5 -3.25,-38.99 -9.75,-58.48 -6.5,-19.49 -16.24,-36.91 -29.24,-52.36 -13,-15.44 -29.24,-28.39 -48.73,-38.98 -19.49,-10.55 -43.04,-15.82 -70.63,-15.82 -40.59,0 -75.1,10.55 -103.54,31.69 -28.39,21.09 -40.96,50.33 -37.71,87.67 1.6,25.99 -6.92,50.33 -25.61,73.07 -18.65,22.74 -45.86,34.09 -81.6,34.09 -29.19,0 -54.76,-8.94 -76.7,-26.79 -21.94,-17.84 -34.51,-39.79 -37.76,-65.78 -1.6,-29.19 7.3,-58.43 26.79,-87.67 19.49,-29.24 47.08,-56.03 82.82,-80.37 35.74,-24.34 77.13,-43.84 124.21,-58.48 47.09,-14.59 97.46,-21.89 151.05,-21.89 73.07,0 136.78,10.55 191.21,31.64 54.38,21.14 99.44,48.31 135.18,81.59 35.69,33.29 62.91,69.83 81.59,109.61 18.65,39.79 29.62,78.35 32.87,115.69 3.25,60.08 4.05,119.78 2.45,179.06 -1.65,59.23 -2.45,122.19 -2.45,188.76zm-428.7 109.61c22.74,0 45.06,-4.47 67,-13.42 21.89,-8.94 42.61,-19.87 62.1,-32.86 -1.6,-8.15 -2.82,-16.67 -3.67,-25.57 -0.8,-8.95 -1.18,-18.27 -1.18,-28.02l0 -260.66c-37.39,9.75 -72.28,23.17 -104.76,40.21 -32.49,17.04 -60.88,36.11 -85.22,57.26 -24.39,21.09 -43.04,43.41 -56.03,66.95 -13,23.54 -18.69,47.51 -17.05,71.85 3.25,30.89 14.17,59.28 32.87,85.27 18.69,25.99 54,38.99 105.94,38.99zm1093.67 -1273.91c0,-55.19 -8.94,-96.62 -27.21,-124.21 -18.27,-27.59 -37.76,-42.24 -59.28,-43.84 -21.47,-1.65 -40.96,8.95 -59.23,31.64 -18.27,22.74 -27.22,56.83 -27.22,102.31l0 338.58c28.02,-19.49 52.78,-42.23 74.3,-68.22 21.09,-25.99 39.36,-52.78 54.01,-80.37 15.02,-27.59 25.94,-54.81 33.67,-81.59 7.3,-26.79 10.97,-51.56 10.97,-74.3zm-647.93 246.02c8.15,11.39 28.44,29.24 60.93,53.58 32.49,24.39 80.37,42.24 143.7,53.58l0 -309.3c0,-29.24 3.63,-62.95 10.97,-101.09 7.3,-38.19 21.09,-75.1 41.39,-110.84 20.3,-35.74 48.73,-65.78 85.27,-90.12 36.54,-24.34 83.2,-36.54 140.03,-36.54 73.07,0 130.33,11.77 171.72,35.31 41.43,23.54 72.28,51.13 92.57,82.82 20.3,31.64 33.29,62.9 38.99,93.79 5.65,30.84 8.52,53.58 8.52,68.18 0,42.24 -8.15,85.65 -24.39,130.33 -16.62,44.63 -38.56,86.87 -66.53,126.66 -27.64,39.78 -61.31,76.32 -100.72,109.61 -38.94,33.24 -81.59,58.86 -127.46,76.7l1.65 226.52c14.59,-17.85 32.86,-38.14 54.76,-60.88 21.52,-22.74 46.28,-43.83 73.92,-63.33 27.59,-19.49 58.43,-36.16 92.14,-49.96 34.09,-13.8 69.83,-20.67 107.17,-20.67 32.07,0 62.53,4.43 90.92,13.37 28.44,8.95 53.58,23.54 75.52,43.84 21.52,20.29 38.56,47.93 50.76,82.82 12.15,34.94 18.27,79.15 18.27,132.73l0 492.03c0,30.84 6.07,52.36 18.27,64.55 12.15,12.2 36.11,18.27 71.85,18.27l0 34.09c-16.24,13 -33.29,24.34 -51.18,34.09 -16.24,8.15 -34.09,15.44 -53.58,21.94 -19.07,6.5 -40.17,9.74 -62.53,9.74 -71,0 -120.96,-21.52 -149.78,-64.55 -28.81,-43.04 -43.46,-98.64 -43.46,-166.87l0 -440.85c0,-42.24 -6.45,-71.43 -19.44,-87.67 -13.42,-16.24 -32.91,-24.34 -59.28,-24.34 -17.89,0 -37.34,6.07 -58.85,18.22 -21.14,12.19 -41.81,27.21 -61.3,45.11 -19.5,17.84 -38.19,36.11 -55.23,54.76 -17.47,18.69 -30.84,33.71 -40.59,45.06l0 574.85 -270.36 0 0 -915.84c-42.23,-9.74 -77.55,-22.31 -105.94,-37.76 -28.44,-15.4 -51.18,-32.06 -68.22,-49.91 -17.04,-17.89 -29.61,-34.94 -37.76,-51.18 -8.1,-16.2 -12.15,-29.19 -12.15,-38.94l19.44 -21.94zm1709.92 211.93c63.33,0 126.66,11.77 189.98,35.31 63.33,23.54 115.69,53.58 157.07,90.12 41.43,36.54 66.2,77.93 74.3,124.21 8.15,46.28 -11.35,91.34 -58.43,135.18 -24.39,22.74 -60.93,41.01 -109.61,54.81 -48.73,13.8 -101.89,23.96 -159.57,30.46 -57.63,6.5 -116.06,10.55 -175.34,12.19 -59.28,1.6 -111.63,2.4 -157.12,2.4 8.15,84.47 37.34,152.22 87.67,203.41 50.33,51.13 125.86,76.7 226.52,76.7 63.33,0 117.33,-9.32 161.97,-28.02 44.69,-18.65 80.8,-39.36 108.44,-62.1 32.44,-27.59 59.23,-58.43 80.37,-92.52l26.79 4.85c3.25,43.83 -4.47,87.67 -23.17,131.51 -18.65,43.88 -46.66,82.82 -84,116.96 -37.39,34.09 -84.47,61.68 -141.3,82.78 -56.83,21.14 -122.61,31.69 -197.28,31.69 -66.58,0 -131.13,-8.52 -193.66,-25.57 -62.48,-17.04 -118.94,-43.83 -169.27,-80.37 -50.33,-36.54 -90.54,-82.82 -120.59,-138.85 -30.04,-56.03 -45.06,-123.83 -45.06,-203.4 0,-69.83 13,-135.18 38.99,-196.06 25.99,-60.88 62.1,-114.09 108.39,-159.52 46.28,-45.48 101.47,-81.22 165.65,-107.21 64.13,-25.94 133.53,-38.94 208.25,-38.94zm7.3 109.61c-35.74,0 -67.8,8.9 -96.19,26.79 -28.44,17.85 -53.2,41.39 -74.3,70.63 -21.14,29.24 -38.19,61.68 -51.18,97.42 -13,35.74 -21.09,71.47 -24.34,107.16 29.24,-1.6 60.5,-5.27 93.79,-10.92 33.29,-5.7 65.73,-12.62 97.42,-20.72 31.64,-8.15 60.88,-17.89 87.67,-29.24 26.79,-11.35 47.51,-24.34 62.11,-38.99 17.89,-17.84 30.89,-38.56 38.98,-62.1 8.15,-23.54 9.32,-45.44 3.67,-65.78 -5.7,-20.3 -19.49,-37.72 -41.43,-52.36 -21.89,-14.6 -53.96,-21.9 -96.19,-21.9zm886.6 794.03l-284.96 0 0 -703.91c0,-42.24 -9.74,-69.45 -29.24,-81.6 -19.5,-12.19 -40.59,-18.27 -63.33,-18.27l-2.45 -31.69c17.89,-13 36.54,-24.34 56.03,-34.09 17.89,-8.1 37.34,-15.82 58.48,-23.12 21.09,-7.34 43.03,-10.97 65.73,-10.97 47.13,0 88.52,11.77 124.26,35.31 35.69,23.54 59.28,66.15 70.63,127.88 51.98,-47.08 99.07,-81.59 141.25,-103.54 42.24,-21.9 86.07,-32.87 131.56,-32.87 42.24,0 75.9,9.32 101.09,28.02 25.14,18.65 39.36,44.26 42.61,76.7 3.25,32.49 -4.9,62.95 -24.34,91.34 -19.49,28.44 -53.58,42.61 -102.31,42.61 -30.84,0 -55.23,-4.85 -73.07,-14.59 -17.84,-9.75 -30.84,-21.09 -38.98,-34.09 -11.35,-14.64 -18.65,-31.69 -21.89,-51.13 -9.75,8.1 -22.74,17.05 -38.99,26.79 -13,9.7 -29.24,21.52 -48.73,35.31 -19.44,13.8 -40.59,31.26 -63.33,52.36l0 623.54zm1322.6 -197.28c0,25.99 5.28,53.16 15.82,81.6 10.55,28.39 29.67,47.51 57.26,57.21 13,3.25 22.74,4.89 29.24,4.89l2.4 31.64c-8.1,9.75 -19.44,18.27 -34.09,25.61 -14.59,7.3 -29.61,13.37 -45.06,18.27 -15.44,4.85 -31.26,8.52 -47.51,10.93 -16.24,2.45 -30.04,3.67 -41.39,3.67 -38.99,0 -75.9,-8.1 -110.84,-24.34 -34.89,-16.24 -63.7,-38.19 -86.44,-65.78 -27.64,27.59 -61.3,51.13 -101.09,70.63 -39.79,19.49 -86.5,29.24 -140.08,29.24 -107.16,0 -189.14,-21.09 -245.97,-63.33 -56.88,-42.24 -85.27,-103.11 -85.27,-182.69 0,-69.82 19.49,-125.85 58.43,-168.04 38.98,-42.23 85.69,-75.52 140.07,-99.87 54.38,-24.39 112.06,-41.01 172.94,-49.96 60.88,-8.94 113.24,-14.22 157.12,-15.82l0 -90.12c0,-19.5 -3.25,-38.99 -9.74,-58.48 -6.5,-19.49 -16.24,-36.91 -29.24,-52.36 -13,-15.44 -29.24,-28.39 -48.73,-38.98 -19.49,-10.55 -43.04,-15.82 -70.63,-15.82 -40.59,0 -75.1,10.55 -103.54,31.69 -28.39,21.09 -40.96,50.33 -37.71,87.67 1.6,25.99 -6.92,50.33 -25.61,73.07 -18.65,22.74 -45.86,34.09 -81.6,34.09 -29.19,0 -54.76,-8.94 -76.7,-26.79 -21.94,-17.84 -34.51,-39.79 -37.76,-65.78 -1.6,-29.19 7.3,-58.43 26.79,-87.67 19.49,-29.24 47.08,-56.03 82.82,-80.37 35.74,-24.34 77.13,-43.84 124.21,-58.48 47.09,-14.59 97.46,-21.89 151.05,-21.89 73.07,0 136.78,10.55 191.21,31.64 54.38,21.14 99.44,48.31 135.18,81.59 35.69,33.29 62.91,69.83 81.59,109.61 18.65,39.79 29.62,78.35 32.87,115.69 3.25,60.08 4.05,119.78 2.45,179.06 -1.65,59.23 -2.45,122.19 -2.45,188.76zm-428.7 109.61c22.74,0 45.06,-4.47 67,-13.42 21.89,-8.94 42.61,-19.87 62.1,-32.86 -1.6,-8.15 -2.82,-16.67 -3.67,-25.57 -0.8,-8.95 -1.18,-18.27 -1.18,-28.02l0 -260.66c-37.38,9.75 -72.27,23.17 -104.76,40.21 -32.49,17.04 -60.88,36.11 -85.22,57.26 -24.39,21.09 -43.04,43.41 -56.03,66.95 -12.99,23.54 -18.69,47.51 -17.04,71.85 3.25,30.89 14.17,59.28 32.87,85.27 18.69,25.99 54,38.99 105.94,38.99zm735.6 -1344.54c47.08,0 80.37,15.02 99.87,45.06 19.49,30.04 29.19,70.25 29.19,120.58 0,22.74 -5.27,58.43 -15.82,107.16 -10.55,48.73 -22.32,99.07 -35.31,151 -13,51.98 -25.57,99.49 -37.76,142.52 -12.15,43.04 -19.87,71 -23.12,84l-36.54 0c-21.09,-76.32 -40.59,-146.95 -58.48,-211.88 -14.6,-55.23 -28.02,-109.24 -40.17,-161.97 -12.19,-52.78 -18.27,-89.74 -18.27,-110.83 0,-50.33 10.12,-90.54 30.42,-120.58 20.34,-30.04 55.65,-45.06 105.99,-45.06zm696.61 479.84l85.27 85.27 0 24.34c0,21.09 4.85,41.01 14.59,59.66 9.75,18.69 21.94,36.54 36.54,53.63 14.64,17.04 29.24,32.44 43.83,46.24 14.64,13.84 26.79,25.61 36.54,35.36 22.74,22.69 46.7,46.24 71.85,70.63 25.19,24.34 47.93,50.71 68.22,79.15 20.29,28.44 36.91,59.66 49.91,93.8 13,34.09 19.49,71.43 19.49,112.01 0,55.23 -12.57,103.92 -37.76,146.15 -25.15,42.24 -58.06,77.55 -98.64,105.94 -40.59,28.44 -86.45,49.96 -137.63,64.55 -51.13,14.65 -102.69,21.94 -154.67,21.94 -69.78,0 -127.46,-7.3 -172.9,-21.94 -45.48,-14.59 -81.59,-33.29 -108.39,-56.03 -26.79,-22.7 -45.48,-47.46 -56.03,-74.25 -10.55,-26.79 -15.82,-53.21 -15.82,-79.2 0,-42.19 14.17,-75.48 42.61,-99.87 28.39,-24.34 61.3,-36.49 98.64,-36.49 38.98,0 69.4,12.95 91.34,38.94 21.9,25.99 32.87,55.23 32.87,87.72 0,19.44 -4.47,38.56 -13.37,57.21 -8.95,18.69 -15.02,35.31 -18.27,49.96 -3.25,14.59 0.8,26.37 12.15,35.31 11.39,8.9 37.39,13.37 77.97,13.37 19.49,0 39.78,-4.47 60.88,-13.37 21.09,-8.94 40.21,-22.31 57.26,-40.21 17.04,-17.85 31.26,-41.01 42.61,-69.4 11.35,-28.44 17.04,-62.11 17.04,-101.09 0,-50.33 -7.72,-96.62 -23.12,-138.85 -15.44,-42.19 -34.51,-81.17 -57.25,-116.91 -22.74,-35.69 -46.71,-69.4 -71.85,-101.09 -25.19,-31.64 -46.71,-62.1 -64.56,-91.3l-192.43 192.39 -85.22 -87.67 348.28 -345.88z"/>
  </g>
 </g>
</svg>
